<?xml version="1.0" encoding="UTF-8" standalone="no"?><!DOCTYPE svg PUBLIC "-//W3C//DTD SVG 1.1//EN" "http://www.w3.org/Graphics/SVG/1.1/DTD/svg11.dtd"><svg width="100%" height="100%" viewBox="0 0 969 969" version="1.1" xmlns="http://www.w3.org/2000/svg" xmlns:xlink="http://www.w3.org/1999/xlink" xml:space="preserve" xmlns:serif="http://www.serif.com/" style="fill-rule:evenodd;clip-rule:evenodd;stroke-linejoin:round;stroke-miterlimit:2;"><rect x="0" y="0" width="969" height="969" style="fill:#fff;fill-opacity:0;"/><path d="M816.51,323.51l-34.51,0l0,-17.51l34.51,0l0,17.51Zm-68.51,68l0,-34.51l34,0l0,-17l17.51,0l0,17.51l-17,0l0,17l-17,0l0,17l-17.51,0Zm34,34l0,-34.51l17.51,0l0,17l33.49,0l0,-34l51.51,0l0,17.51l-17,0l0,17l-17,0l0,17l-68.51,0Zm136,255l0,-51.51l17.51,0l0,51.51l-17.51,0Zm-850,-425l-34,0l0,-17.51l34,0l0,-16.49l-17,0l0,-17.51l17,0l0,-34l51.51,0l0,34l51,0l0,17l16.49,0l0,-17l17,0l0,-33.49l-16.49,0l0,17l-17.51,0l0,-68.51l17,0l0,-17l17,0l0,-33.49l-16.49,0l0,17l-17.51,0l0,-51.51l17.51,0l0,17l16.49,0l0,-17l34.51,0l0,34l17,0l0,17l16.49,0l0,-17l17,0l0,-34l34.51,0l0,17.51l-17,0l0,16.49l67.49,0l0,-16.49l-17,0l0,-17.51l34.51,0l0,17l16.49,0l0,-17l17.51,0l0,51l16.49,0l0,-51l34.51,0l0,34l17,0l0,17l16.49,0l0,-34l34,0l0,-17l51.51,0l0,17l33.49,0l0,-17l51.51,0l0,17l16.49,0l0,-17l68.51,0l0,17l17,0l0,34l17,0l0,17.51l-17.51,0l0,-17l-16.49,0l0,67.49l16.49,0l0,-17l17.51,0l0,34l51,0l0,17l33.49,0l0,-17l51.51,0l0,34.51l-34.51,0l0,-17l-16.49,0l0,17l-17,0l0,16.49l17,0l0,17l17,0l0,17l16.49,0l0,-34l17.51,0l0,51.51l-17,0l0,16.49l17,0l0,17.51l-17,0l0,16.49l17,0l0,17.51l-34.51,0l0,-17l-16.49,0l0,17l-17,0l0,17l-51.51,0l0,-17.51l34,0l0,-16.49l-17,0l0,-17.51l34,0l0,-16.49l-51,0l0,-17l-16.49,0l0,17l-34.51,0l0,-17l-33.49,0l0,17l-17,0l0,33.49l33.49,0l0,-17l17.51,0l0,34.51l-51,0l0,33.49l17,0l0,34.51l-34,0l0,16.49l68,0l0,17.51l-68.51,0l0,-17l-16.49,0l0,50.49l17,0l0,51.51l-17,0l0,16.49l33.49,0l0,-17l17,0l0,-16.49l-17,0l0,-34.51l17.51,0l0,34l17,0l0,17l17,0l0,17l16.49,0l0,-50.49l-34,0l0,-17.51l17,0l0,-17l17,0l0,-17l85.51,0l0,34l16.49,0l0,-17l17,0l0,-34l17.51,0l0,34.51l-17,0l0,33.49l34,0l0,17.51l-17,0l0,16.49l17,0l0,17.51l-51.51,0l0,-17l-16.49,0l0,33.49l17,0l0,17l17,0l0,17l16.49,0l0,-34l17.51,0l0,51.51l-34,0l0,17l-17,0l0,16.49l17,0l0,17.51l-17,0l0,50.49l16.49,0l0,-17l17.51,0l0,17l17,0l0,34.51l-17,0l0,16.49l17,0l0,17.51l-17,0l0,16.49l17,0l0,17.51l-34.51,0l0,-17l-16.49,0l0,50.49l17,0l0,17.51l-34,0l0,17l-17.51,0l0,-17l-16.49,0l0,17l-17,0l0,16.49l17,0l0,17.51l-17,0l0,17l-17.51,0l0,-34l-16.49,0l0,17l-17,0l0,17l-17.51,0l0,-17l-16.49,0l0,17l-17.51,0l0,-17l-16.49,0l0,17l-51.51,0l0,-17l-16.49,0l0,17l-68.51,0l0,-17.51l51,0l0,-33.49l-16.49,0l0,17l-51,0l0,17l-17,0l0,17l-68.51,0l0,-17l-33.49,0l0,17l-34.51,0l0,-17l-16.49,0l0,17l-34.51,0l0,-17l-17,0l0,-17.51l17,0l0,-16.49l-33.49,0l0,17l-17,0l0,34l-34.51,0l0,-17.51l17,0l0,-33.49l-17,0l0,-17l-33.49,0l0,16.49l17,0l0,17.51l-17,0l0,34l-17.51,0l0,-17l-17,0l0,-17l-17,0l0,-51.51l17,0l0,-17l34,0l0,-33.49l-16.49,0l0,17l-34.51,0l0,-17.51l34,0l0,-33.49l-16.49,0l0,17l-34,0l0,17l-17.51,0l0,-17.51l17,0l0,-16.49l-67.49,0l0,16.49l17,0l0,17.51l-17.51,0l0,-17l-34,0l0,-17l-17,0l0,-51.51l17,0l0,-16.49l-17,0l0,-119.51l17.51,0l0,17l16.49,0l0,-17l17.51,0l0,17l50.49,0l0,-16.49l-34,0l0,-17l-34,0l0,-17l-17,0l0,-34l-17,0l0,-34.51l51.51,0l0,17l16.49,0l0,-33.49l-34,0l0,-17l-16.49,0l0,17l-17.51,0l0,-17.51l17,0l0,-16.49l-17,0l0,-34.51l17,0l0,-17l34,0l0,-16.49l-51,0l0,-34.51l17,0l0,-33.49l-17,0l0,-17.51l17.51,0l0,17l33.49,0l0,-16.49l-17,0l0,-17Zm629.51,-204l0,16.49l16.49,0l0,-16.49l-16.49,0Zm-493,118.49l16.49,0l0,-16.49l-16.49,0l0,16.49Zm-85.51,34.51l-16.49,0l0,16.49l16.49,0l0,-16.49Zm578,-136l-16.49,0l0,17l-17,0l0,16.49l17,0l0,17l16.49,0l0,-50.49Zm-509.49,84.49l16.49,0l0,-33.49l-16.49,0l0,33.49Zm237.49,-67.49l-33.49,0l0,16.49l17,0l0,17l33.49,0l0,-16.49l-17,0l0,-17Zm-220.49,119l0,34l-17,0l0,17l-51.51,0l0,-17l-16.49,0l0,17l-17,0l0,33.49l33.49,0l0,-17l17.51,0l0,17l17,0l0,17l16.49,0l0,-34l17,0l0,-17l17,0l0,-34l17,0l0,-16.49l-33.49,0Zm543.49,-153l-16.49,0l0,33.49l33.49,0l0,-16.49l-17,0l0,-17Zm-543.49,51l0,16.49l16.49,0l0,-16.49l-16.49,0Zm68,-17l0,33.49l16.49,0l0,-17l17.51,0l0,34l17,0l0,34l16.49,0l0,-68l17,0l0,-16.49l-84.49,0Zm-102.51,136l-33.49,0l0,16.49l33.49,0l0,-16.49Zm51.51,-51l0,16.49l33.49,0l0,-17l17.51,0l0,17l33.49,0l0,-50.49l-16.49,0l0,17l-17.51,0l0,-34l-17,0l0,-34l-16.49,0l0,34l-17,0l0,33.49l16.49,0l0,-17l17.51,0l0,17.51l-17,0l0,17l-17,0Zm408,-119l0,17l-17,0l0,33.49l17,0l0,17.51l-17.51,0l0,-17l-16.49,0l0,17l-17,0l0,16.49l17,0l0,17.51l-17,0l0,17l-17,0l0,17l-102,0l0,16.49l17,0l0,17.51l-17,0l0,16.49l33.49,0l0,-34l17.51,0l0,34l50.49,0l0,-17l51,0l0,-33.49l-17,0l0,-17.51l17,0l0,-34l17.51,0l0,51l16.49,0l0,-17l17,0l0,-16.49l-17,0l0,-17.51l17,0l0,-16.49l-17,0l0,-68l-16.49,0Zm-85,152.49l0,17.51l-17.51,0l0,-17.51l17.51,0Zm255,255.51l0,50.49l50.49,0l0,-50.49l-50.49,0Zm34,16.49l0,17.51l-17.51,0l0,-17.51l17.51,0Zm50.49,-153l0,-16.49l-16.49,0l0,16.49l16.49,0Zm0,323.51l-17,0l0,-17l-16.49,0l0,33.49l33.49,0l0,-16.49Zm17,-153l-33.49,0l0,16.49l17,0l0,17l16.49,0l0,-33.49Zm-102,-221.51l0,-16.49l-17,0l0,-17.51l17,0l0,-16.49l-33.49,0l0,50.49l33.49,0Zm85,-33.49l-33.49,0l0,33.49l16.49,0l0,-17l17,0l0,-16.49Zm-424.49,679.49l50.49,0l0,-50.49l-33.49,0l0,34l-17,0l0,16.49Zm220.49,-441.49l-16.49,0l0,16.49l16.49,0l0,-16.49Zm221,-221l-16.49,0l0,17l-17,0l0,16.49l17,0l0,17l33.49,0l0,-16.49l-17,0l0,-34Zm-306,628.49l0,-33.49l-17,0l0,-17.51l17.51,0l0,17l16.49,0l0,-33.49l-50.49,0l0,34l-34,0l0,50.49l16.49,0l0,-17l17,0l0,-17l17.51,0l0,17l16.49,0Zm187.51,-339.49l0,16.49l50.49,0l0,-33.49l-33.49,0l0,17l-17,0Zm-85.51,373.49l0,-17l17,0l0,-16.49l-67.49,0l0,16.49l17,0l0,17l33.49,0Zm119.51,-646l16.49,0l0,-16.49l-16.49,0l0,16.49Zm-17,578l50.49,0l0,-50.49l-50.49,0l0,50.49Zm34,-34l0,17.51l-17.51,0l0,-17.51l17.51,0Zm-102,-288.49l0,16.49l16.49,0l0,-16.49l-16.49,0Zm-51.51,17l-33.49,0l0,17l-17,0l0,16.49l67.49,0l0,-16.49l-17,0l0,-17Zm221.51,170l0,16.49l16.49,0l0,-16.49l-16.49,0Zm-136.51,-561l-16.49,0l0,33.49l16.49,0l0,-33.49Zm85,34l-16.49,0l0,17l-17,0l0,33.49l33.49,0l0,-50.49Zm-102,-34.51l0,-33.49l-50.49,0l0,33.49l16.49,0l0,-17l17.51,0l0,17l16.49,0Zm68,731l0,-16.49l-16.49,0l0,16.49l16.49,0Zm-101.49,-339.49l0,16.49l16.49,0l0,-16.49l-16.49,0Zm169.49,170l-16.49,0l0,17l-17.51,0l0,-17l-16.49,0l0,17l-51,0l0,16.49l17,0l0,34l16.49,0l0,-17l17,0l0,-17l51.51,0l0,17.51l-17,0l0,33.49l16.49,0l0,-17l17,0l0,-50.49l-17,0l0,-17Zm-84.49,-459.51l16.49,0l0,-16.49l-16.49,0l0,16.49Zm-17.51,646l0,-16.49l-50.49,0l0,16.49l17,0l0,17l16.49,0l0,-17l17,0Zm-85,-527l0,-33.49l-16.49,0l0,17l-17.51,0l0,-34l-16.49,0l0,34l-34.51,0l0,-34l-51,0l0,-17l-16.49,0l0,33.49l17,0l0,17l34,0l0,17l34,0l0,17l34,0l0,17.51l-51,0l0,50.49l16.49,0l0,-34l17.51,0l0,51l16.49,0l0,-51l17,0l0,-51l17,0Zm0.51,-119l50.49,0l0,-16.49l-34,0l0,-51.51l17,0l0,-16.49l-34,0l0,-17l-16.49,0l0,50.49l17,0l0,17.51l-17,0l0,16.49l17,0l0,17Zm169.49,306.51l-16.49,0l0,17l-34,0l0,16.49l50.49,0l0,-33.49Zm-170,-255.51l0,-16.49l-17,0l0,-51l-16.49,0l0,17l-17.51,0l0,-34.51l34,0l0,-16.49l-50.49,0l0,34l-17,0l0,16.49l17,0l0,34.51l-17,0l0,33.49l33.49,0l0,-17l51,0Zm-33.49,-34l0,17.51l-17.51,0l0,-17.51l17.51,0Zm67.49,646l0,-16.49l-16.49,0l0,16.49l16.49,0Zm153,-289l0,-16.49l-16.49,0l0,16.49l16.49,0Zm-204,-102l0,-16.49l-33.49,0l0,16.49l33.49,0Zm-152.49,-441.49l0,33.49l16.49,0l0,-33.49l-16.49,0Zm-119.51,815.49l51,0l0,-16.49l-17,0l0,-17l-50.49,0l0,50.49l16.49,0l0,-17Zm-221,-136l0,-16.49l-16.49,0l0,16.49l16.49,0Zm34,102l0,-16.49l-33.49,0l0,16.49l33.49,0Zm-101.49,-119l50.49,0l0,-16.49l-34,0l0,-17l-17,0l0,-17l-33.49,0l0,17l-34,0l0,16.49l34,0l0,17l16.49,0l0,-17l17.51,0l0,17Zm136,-543.49l0,33.49l16.49,0l0,-33.49l-16.49,0Zm-136,255l0,50.49l50.49,0l0,-50.49l-50.49,0Zm34,16.49l0,17.51l-17.51,0l0,-17.51l17.51,0Zm-34.51,136.51l-16.49,0l0,33.49l16.49,0l0,-33.49Zm-50.49,-170.51l33.49,0l0,-17l17,0l0,-33.49l-17,0l0,-17l-16.49,0l0,34l-34,0l0,16.49l17,0l0,17Zm34,-102l0,34l16.49,0l0,-17l17,0l0,-17l34,0l0,-33.49l-16.49,0l0,17l-17.51,0l0,-17l-33.49,0l0,17l-51,0l0,16.49l51,0Zm0,221l16.49,0l0,-17l34,0l0,-16.49l-51,0l0,-17l-33.49,0l0,33.49l34,0l0,17Zm-17.51,204l0,-16.49l-16.49,0l0,16.49l16.49,0Zm510,-696.49l-16.49,0l0,33.49l16.49,0l0,-33.49Zm-289,815.49l0,-33.49l-34,0l0,-51l-16.49,0l0,67.49l17,0l0,17l33.49,0Zm204,-764.49l-50.49,0l0,50.49l50.49,0l0,-50.49Zm-16.49,16.49l0,17.51l-17.51,0l0,-17.51l17.51,0Zm-357,153.51l-0,16.49l16.49,0l0,-16.49l-16.49,0Zm221,595l0,16.49l16.49,0l0,-16.49l-16.49,0Zm-170,-578l0,16.49l16.49,0l0,-16.49l-16.49,0Zm51,-68l0,16.49l16.49,0l0,-16.49l-16.49,0Zm221,-153l0,16.49l16.49,0l0,-16.49l-16.49,0Zm-408,527l-0,16.49l16.49,0l0,-16.49l-16.49,0Zm170,237.49l16.49,0l0,-16.49l-16.49,0l0,16.49Zm323,-781.49l0,16.49l16.49,0l0,-16.49l-16.49,0Zm-238,119l0,33.49l17,0l0,17l17,0l0,17l17,0l0,17l34,0l0,17l34,0l0,17l16.49,0l0,-84.49l-33.49,0l0,17l-17,0l0,17l-17.51,0l0,-17.51l17,0l0,-16.49l-17,0l0,-17.51l17,0l0,-17l34,0l0,-17l17,0l0,-33.49l-16.49,0l0,17l-17,0l0,17l-17.51,0l0,-17l-17,0l0,-17.51l17,0l0,-33.49l-16.49,0l0,17l-17,0l0,50.49l17,0l0,17.51l-17,0l0,17l-17.51,0l0,-17l-33.49,0Zm34,730.49l16.49,0l0,-16.49l-16.49,0l0,16.49Zm-119,-119l16.49,0l0,-16.49l-16.49,0l0,16.49Zm-17,-34l16.49,0l0,-67.49l-50.49,0l0,33.49l16.49,0l0,-17l17.51,0l0,17.51l-17,0l0,16.49l17,0l0,17Zm-153,-118.49l0,16.49l16.49,0l0,-16.49l-16.49,0Zm136,254.49l16.49,0l0,-16.49l-16.49,0l0,16.49Zm-51,-305.49l0,16.49l34,0l0,17.51l-34,0l0,16.49l50.49,0l0,-17l17.51,0l0,34l17,0l0,17l33.49,0l0,-34l17,0l0,-16.49l-34,0l0,-17l-34,0l0,-17l-34,0l0,-17.51l17,0l0,-16.49l-17,0l0,-17l-16.49,0l0,17l-17,0l0,16.49l17,0l0,17.51l-17,0Zm68,-323l0,16.49l16.49,0l0,-16.49l-16.49,0Zm-119,-34l0,16.49l16.49,0l0,-16.49l-16.49,0Zm476,560.49l50.49,0l0,-16.49l-34,0l0,-17l-33.49,0l0,16.49l17,0l0,17Zm84.49,-289l0,-16.49l-16.49,0l0,16.49l16.49,0Zm-85,-340l0,-16.49l-16.49,0l0,16.49l16.49,0Zm153.51,-84.49l0,16.49l16.49,0l0,-16.49l-16.49,0Zm67.49,781.49l0,-84.49l-16.49,0l0,34l-17,0l0,16.49l17,0l0,34l16.49,0Zm-322.49,-17l50.49,0l0,-50.49l-50.49,0l0,50.49Zm34,-34l0,17.51l-17.51,0l0,-17.51l17.51,0Zm288.49,-85l0,-16.49l-33.49,0l0,16.49l33.49,0Zm-51,153l0,-33.49l-34,0l0,-17l-17,0l0,-51l-16.49,0l0,17l-51,0l0,16.49l17,0l0,34l51,0l0,17l34,0l0,17l16.49,0Zm-67.49,-68l0,17.51l-17.51,0l0,-17.51l17.51,0Zm-34.51,-255l0,-16.49l-16.49,0l0,16.49l16.49,0Zm-34,-68l0,-50.49l-16.49,0l0,34l-17,0l0,33.49l16.49,0l0,-17l17,0Zm0,-254.49l-16.49,0l0,16.49l16.49,0l0,-16.49Zm-102,17l-33.49,0l0,33.49l16.49,0l0,-17l17,0l0,-16.49Zm272,-51l-33.49,0l0,16.49l33.49,0l0,-16.49Zm-187,-68l-16.49,0l0,16.49l16.49,0l0,-16.49Zm-34,119l-16.49,0l0,50.49l16.49,0l0,-17l17,0l0,-16.49l-17,0l0,-17Zm68,33.49l0,-16.49l-16.49,0l0,16.49l16.49,0Zm153.51,-101.49l0,16.49l33.49,0l0,-16.49l-33.49,0Zm-153.51,390.49l0,-16.49l-17,0l0,-17.51l17,0l0,-16.49l-67.49,0l0,16.49l34,0l0,51l16.49,0l0,-17l17,0Zm34,-50.49l-16.49,0l0,16.49l16.49,0l0,-16.49Zm136,221l-50.49,0l0,33.49l16.49,0l0,-17l34,0l0,-16.49Zm-288.49,-510l0,16.49l16.49,0l0,-16.49l-16.49,0Zm-51.51,-34.51l0,-16.49l-16.49,0l0,16.49l16.49,0Zm391.51,561.51l0,16.49l16.49,0l0,-16.49l-16.49,0Zm-204.51,-187l-16.49,0l0,34l-34,0l0,16.49l17,0l0,17.51l-17,0l0,16.49l17,0l0,17l17,0l0,34.51l-17,0l0,16.49l17,0l0,17.51l-34,0l0,16.49l34,0l0,17l16.49,0l0,-68l34,0l0,-17l17,0l0,-16.49l-17,0l0,-17l-16.49,0l0,34l-17.51,0l0,-34.51l17,0l0,-17l17.51,0l0,17l16.49,0l0,-17l17.51,0l0,17.51l-17,0l0,16.49l17,0l0,17l16.49,0l0,-34l17,0l0,-16.49l-17,0l0,-51.51l17.51,0l0,34l51,0l0,17l16.49,0l0,-17l34,0l0,-16.49l-17,0l0,-17l-34,0l0,-17l-17,0l0,-17l-33.49,0l0,17l-34,0l0,17l-17,0l0,16.49l17,0l0,17.51l-68.51,0l0,-17.51l17,0l0,-16.49l-17,0l0,-17Zm136.51,16.49l0,17.51l-17.51,0l0,-17.51l17.51,0Zm-153.51,-203.49l-33.49,0l0,16.49l33.49,0l0,-16.49Zm-51,424.49l0,-16.49l-17,0l0,-17l-16.49,0l0,33.49l33.49,0Zm102.51,-663l16.49,0l0,-16.49l-16.49,0l0,16.49Zm-34.51,323.51l-16.49,0l0,16.49l16.49,0l0,-16.49Zm-67.49,-170.51l16.49,0l0,-16.49l-16.49,0l0,16.49Zm271.49,374.51l0,-34l-16.49,0l0,17l-34,0l0,17l-51,0l0,33.49l16.49,0l0,-17l34.51,0l0,17l16.49,0l0,-17l51,0l0,-16.49l-17,0Zm-255,-561.51l0,-16.49l-16.49,0l0,16.49l16.49,0Zm51,408l0,-16.49l-16.49,0l0,16.49l16.49,0Zm-373.49,153.51l0,16.49l17,0l0,34l16.49,0l0,-34l17.51,0l0,34l17,0l0,34.51l-17.51,0l0,-17l-33.49,0l0,16.49l17,0l0,17l34,0l0,17l16.49,0l0,-17l17.51,0l0,17l17,0l0,51l16.49,0l0,-51l34,0l0,-17l17,0l0,-16.49l-17,0l0,-51.51l17.51,0l0,51l16.49,0l0,-34l17.51,0l0,34.51l-17,0l0,16.49l33.49,0l0,-68l34,0l0,-17l17,0l0,-17l17.51,0l0,17.51l-17,0l0,16.49l50.49,0l0,-16.49l-17,0l0,-34l-34,0l0,-17.51l34,0l0,-16.49l-34,0l0,-17l-16.49,0l0,34l-17,0l0,16.49l17,0l0,17.51l-17,0l0,17l-34,0l0,17l-17.51,0l0,-17l-17,0l0,-17l-16.49,0l0,17l-34,0l0,33.49l17,0l0,17.51l-17,0l0,16.49l17,0l0,17.51l-17.51,0l0,-17l-17,0l0,-17l-16.49,0l0,17l-17.51,0l0,-68l-17,0l0,-51l-17,0l0,-17l-16.49,0l0,34l-17,0l0,17l-17,0Zm-153,-0.51l16.49,0l0,-16.49l-16.49,0l0,16.49Zm102,-85l33.49,0l0,-84.49l-16.49,0l0,17l-34,0l0,33.49l34,0l0,17.51l-17,0l0,16.49Zm357,-339.49l0,16.49l16.49,0l0,-16.49l-16.49,0Zm-425,102l0,16.49l16.49,0l0,-16.49l-16.49,0Zm16.49,356.49l0,-16.49l-16.49,0l0,16.49l16.49,0Zm204,-441.49l-16.49,0l0,16.49l16.49,0l0,-16.49Zm-237.49,118.49l16.49,0l0,-16.49l-16.49,0l0,16.49Zm170,408.51l0,16.49l16.49,0l0,-16.49l-16.49,0Zm254.49,-442l-16.49,0l0,16.49l16.49,0l0,-16.49Zm-424.49,289l0,16.49l16.49,0l0,-16.49l-16.49,0Zm238,220.49l16.49,0l0,-16.49l-16.49,0l0,16.49Zm84.49,-543.49l-16.49,0l0,50.49l17,0l0,17l17,0l0,34.51l-17.51,0l0,-17l-17,0l0,-34l-17,0l0,-17l-17,0l0,-17l-84.49,0l0,16.49l17,0l0,34l16.49,0l0,-34l34.51,0l0,17l17,0l0,17l17,0l0,17.51l-17.51,0l0,-17l-33.49,0l0,16.49l17,0l0,17l17,0l0,17.51l-17,0l0,16.49l17,0l0,17l50.49,0l0,-16.49l-34,0l0,-17.51l68,0l0,-17l17.51,0l0,17l34,0l0,17l16.49,0l0,-34l34,0l0,-16.49l-50.49,0l0,17l-17.51,0l0,-17.51l17,0l0,-16.49l-34,0l0,-17l-17,0l0,-17l-34,0l0,-34Zm-16.49,526.49l16.49,0l0,-33.49l-33.49,0l0,16.49l17,0l0,17Zm135.49,-374l0,-16.49l-16.49,0l0,16.49l16.49,0Zm-391,187.51l-33.49,0l0,16.49l33.49,0l0,-16.49Zm68.51,34l0,16.49l16.49,0l0,-16.49l-16.49,0Zm-153,-51l0,16.49l16.49,0l0,-16.49l-16.49,0Zm441.49,-289.51l0,-16.49l-16.49,0l0,16.49l16.49,0Zm-288.49,-84.49l0,16.49l17,0l0,17.51l-17,0l0,33.49l16.49,0l0,-17l34,0l0,-17l17,0l0,-16.49l-17,0l0,-17l-17,0l0,-17l-16.49,0l0,17l-17,0Zm169.49,-119.51l0,-16.49l-16.49,0l0,16.49l16.49,0Zm-203.49,170.51l0,16.49l16.49,0l0,-16.49l-16.49,0Zm17,-34l0,16.49l16.49,0l0,-16.49l-16.49,0Zm118.49,-34l-16.49,0l0,16.49l16.49,0l0,-16.49Zm-16.49,594.49l33.49,0l0,-33.49l-16.49,0l0,17l-17,0l0,16.49Zm220.49,-713.49l-16.49,0l0,16.49l16.49,0l0,-16.49Zm-153,153l-16.49,0l0,17l-34,0l0,16.49l51,0l0,17l16.49,0l0,-17l17,0l0,-16.49l-34,0l0,-17Zm-271.49,152.49l67.49,0l0,-17l17,0l0,-17l34.51,0l0,17l16.49,0l0,-33.49l-17,0l0,-17.51l17,0l0,-16.49l-33.49,0l0,17l-34,0l0,17l-51,0l0,16.49l17,0l0,17.51l-34,0l0,16.49Zm51,-101.49l0,33.49l16.49,0l0,-33.49l-16.49,0Zm-102,289l0,16.49l16.49,0l0,-16.49l-16.49,0Zm425,-357l0,16.49l16.49,0l0,-16.49l-16.49,0Zm-255,459l0,33.49l16.49,0l0,-33.49l-16.49,0Zm339.49,16.49l0,-16.49l-33.49,0l0,16.49l33.49,0Zm-84.49,-374l16.49,0l0,-16.49l-16.49,0l0,16.49Zm-136.51,85l0,-33.49l-33.49,0l0,16.49l17,0l0,17l16.49,0Zm357,323.51l0,-51l-33.49,0l0,16.49l17,0l0,17.51l-17,0l0,16.49l17,0l0,34l17,0l0,17l16.49,0l0,-50.49l-17,0Zm-492.49,-289.51l16.49,0l0,-17l17,0l0,-16.49l-33.49,0l0,33.49Zm526.49,340.51l-16.49,0l0,16.49l16.49,0l0,-16.49Zm-475.49,-476l0,16.49l16.49,0l0,-16.49l-16.49,0Zm51,288.49l16.49,0l0,-50.49l-16.49,0l0,17l-17,0l0,16.49l17,0l0,17Zm50.49,85l0,-33.49l-16.49,0l0,33.49l16.49,0Zm0,-271.49l-16.49,0l0,33.49l16.49,0l0,-33.49Zm272.51,306l0,16.49l16.49,0l0,-16.49l-16.49,0Zm-323.51,-374l-33.49,0l0,16.49l33.49,0l0,-16.49Zm-67.49,170l0,16.49l16.49,0l0,-16.49l-16.49,0Zm340,-68l0,16.49l16.49,0l0,-16.49l-16.49,0Zm-102.51,-187l-16.49,0l0,33.49l16.49,0l0,-33.49Zm-186.49,0l0,16.49l16.49,0l0,-16.49l-16.49,0Zm203.49,289l-16.49,0l0,16.49l16.49,0l0,-16.49Zm238.51,51l0,16.49l33.49,0l0,-16.49l-33.49,0Zm-272,33.49l16.49,0l0,-16.49l-16.49,0l0,16.49Zm67.49,-135.49l-16.49,0l0,16.49l16.49,0l0,-16.49Zm-288.49,-119l0,33.49l16.49,0l0,-33.49l-16.49,0Zm305.49,136l-16.49,0l0,17l-34,0l0,16.49l34,0l0,17l16.49,0l0,-50.49Zm102.51,153l0,16.49l16.49,0l0,-16.49l-16.49,0Zm-204,-255l0,50.49l50.49,0l0,-50.49l-50.49,0Zm34,16.49l0,17.51l-17.51,0l0,-17.51l17.51,0Zm-306,-33.49l-0,16.49l16.49,0l0,-16.49l-16.49,0Zm322.49,203.49l0,-16.49l-34,0l0,-51.51l34,0l0,-50.49l-50.49,0l0,17l-17,0l0,34l-17,0l0,17l-17,0l0,16.49l17,0l0,17l16.49,0l0,-34l17.51,0l0,34.51l-17,0l0,17l-17.51,0l0,-17l-34,0l0,-34l-16.49,0l0,34l-17,0l0,16.49l34,0l0,34l33.49,0l0,-17l17.51,0l0,17l16.49,0l0,-34l51,0Zm-16.49,-102l0,17.51l-17.51,0l0,-17.51l17.51,0Zm-170,-254.49l0,16.49l16.49,0l0,-16.49l-16.49,0Zm407.49,425l-16.49,0l0,16.49l16.49,0l0,-16.49Zm-510,-204.51l0,-16.49l-16.49,0l0,16.49l16.49,0Zm323,0l0,-16.49l-16.49,0l0,16.49l16.49,0Zm-254.49,102l16.49,0l0,-16.49l-16.49,0l0,16.49Zm101.49,119.51l-16.49,0l0,16.49l16.49,0l0,-16.49Zm-101.49,-153.51l16.49,0l0,-33.49l-33.49,0l0,16.49l17,0l0,17Zm85,-84.49l0,16.49l16.49,0l0,-16.49l-16.49,0Zm-119,-17l0,16.49l34,0l0,17l33.49,0l0,-17l17,0l0,-33.49l-16.49,0l0,17l-34.51,0l0,-17l-16.49,0l0,17l-17,0Zm101.49,17l-16.49,0l0,16.49l16.49,0l0,-16.49Zm85,50.49l0,-33.49l-16.49,0l0,17l-17.51,0l0,-17l-16.49,0l0,50.49l33.49,0l0,-17l17,0Zm-68,119.51l-16.49,0l0,16.49l16.49,0l0,-16.49Zm0.51,-85.51l16.49,0l0,-16.49l-16.49,0l0,16.49Zm-0.51,-67.49l-16.49,0l0,16.49l16.49,0l0,-16.49Zm0,50.49l0,-16.49l-16.49,0l0,16.49l16.49,0Zm-101.49,34l16.49,0l0,-16.49l-16.49,0l0,16.49Zm51,-17l16.49,0l0,-67.49l-16.49,0l0,67.49Zm577.49,340.51l0,-34.51l17,0l0,-17l17.51,0l0,17.51l-17,0l0,34l-17.51,0Zm-747.49,-748.51l0,17.51l-17.51,0l0,-17.51l17.51,0Zm782,204l0,17.51l-17.51,0l0,-17.51l17.51,0Zm-51,544l0,17.51l-17.51,0l0,-17.51l17.51,0Z" style="fill:#fff;"/><g><g><g><path d="M34,34l0,119l119,0l0,-119l-119,0Zm102,102l-85,0l0,-85l85,0l0,85Z" style="fill:#fff;fill-rule:nonzero;"/></g></g><g><g><path d="M816,34l0,119l119,0l0,-119l-119,0Zm102,102l-85,0l0,-85l85,0l0,85Z" style="fill:#fff;fill-rule:nonzero;"/></g></g><g><g><path d="M34,816l0,119l119,0l0,-119l-119,0Zm102,102l-85,0l0,-85l85,0l0,85Z" style="fill:#fff;fill-rule:nonzero;"/></g></g><g><g><rect x="68" y="68" width="51" height="51" style="fill:#fff;"/></g></g><g><g><rect x="850" y="68" width="51" height="51" style="fill:#fff;"/></g></g><g><g><rect x="68" y="850" width="51" height="51" style="fill:#fff;"/></g></g></g></svg>