<?xml version="1.0" encoding="UTF-8" standalone="no"?><!DOCTYPE svg PUBLIC "-//W3C//DTD SVG 1.1//EN" "http://www.w3.org/Graphics/SVG/1.1/DTD/svg11.dtd"><svg width="100%" height="100%" viewBox="0 0 969 1203" version="1.1" xmlns="http://www.w3.org/2000/svg" xmlns:xlink="http://www.w3.org/1999/xlink" xml:space="preserve" xmlns:serif="http://www.serif.com/" style="fill-rule:evenodd;clip-rule:evenodd;stroke-linejoin:round;stroke-miterlimit:2;"><rect id="Prancheta1" x="0" y="0" width="969" height="1202.182" style="fill:none;"/><rect x="0" y="233.182" width="969" height="969" style="fill:#fff;fill-opacity:0;"/><path d="M816.51,556.692l-34.51,0l0,-17.51l34.51,0l0,17.51Zm-68.51,68l0,-34.51l34,0l0,-17l17.51,0l0,17.51l-17,0l0,17l-17,0l0,17l-17.51,0Zm34,34l0,-34.51l17.51,0l0,17l33.49,0l0,-34l51.51,0l0,17.51l-17,0l0,17l-17,0l0,17l-68.51,0Zm136,255l0,-51.51l17.51,0l0,51.51l-17.51,0Zm-850,-425l-34,0l0,-17.51l34,0l0,-16.49l-17,0l0,-17.51l17,0l0,-34l51.51,0l0,34l51,0l0,17l16.49,0l0,-17l17,0l0,-33.49l-16.49,0l0,17l-17.51,0l0,-68.51l17,0l0,-17l17,0l0,-33.49l-16.49,0l0,17l-17.51,0l0,-51.51l17.51,0l0,17l16.49,0l0,-17l34.51,0l0,34l17,0l0,17l16.49,0l0,-17l17,0l0,-34l34.51,0l0,17.51l-17,0l0,16.49l67.49,0l0,-16.49l-17,0l0,-17.51l34.51,0l0,17l16.49,0l0,-17l17.51,0l0,51l16.49,0l0,-51l34.51,0l0,34l17,0l0,17l16.49,0l0,-34l34,0l0,-17l51.51,0l0,17l33.49,0l0,-17l51.51,0l0,17l16.49,0l0,-17l68.51,0l0,17l17,0l0,34l17,0l0,17.51l-17.51,0l0,-17l-16.49,0l0,67.49l16.49,0l0,-17l17.51,0l0,34l51,0l0,17l33.49,0l0,-17l51.51,0l0,34.51l-34.51,0l0,-17l-16.49,0l0,17l-17,0l0,16.49l17,0l0,17l17,0l0,17l16.49,0l0,-34l17.51,0l0,51.51l-17,0l0,16.49l17,0l0,17.51l-17,0l0,16.49l17,0l0,17.51l-34.51,0l0,-17l-16.49,0l0,17l-17,0l0,17l-51.51,0l0,-17.51l34,0l0,-16.49l-17,0l0,-17.51l34,0l0,-16.49l-51,0l0,-17l-16.49,0l0,17l-34.51,0l0,-17l-33.49,0l0,17l-17,0l0,33.49l33.49,0l0,-17l17.51,0l0,34.51l-51,0l0,33.49l17,0l0,34.51l-34,0l0,16.49l68,0l0,17.51l-68.51,0l0,-17l-16.49,0l0,50.49l17,0l0,51.51l-17,0l0,16.49l33.49,0l0,-17l17,0l0,-16.49l-17,0l0,-34.51l17.51,0l0,34l17,0l0,17l17,0l0,17l16.49,0l0,-50.49l-34,0l0,-17.51l17,0l0,-17l17,0l0,-17l85.51,0l0,34l16.49,0l0,-17l17,0l0,-34l17.51,0l0,34.51l-17,0l0,33.49l34,0l0,17.51l-17,0l0,16.49l17,0l0,17.51l-51.51,0l0,-17l-16.49,0l0,33.49l17,0l0,17l17,0l0,17l16.49,0l0,-34l17.51,0l0,51.51l-34,0l0,17l-17,0l0,16.49l17,0l0,17.51l-17,0l0,50.49l16.49,0l0,-17l17.51,0l0,17l17,0l0,34.51l-17,0l0,16.49l17,0l0,17.51l-17,0l0,16.49l17,0l0,17.51l-34.51,0l0,-17l-16.49,0l0,50.49l17,0l0,17.51l-34,0l0,17l-17.51,0l0,-17l-16.49,0l0,17l-17,0l0,16.49l17,0l0,17.51l-17,0l0,17l-17.51,0l0,-34l-16.49,0l0,17l-17,0l0,17l-17.51,0l0,-17l-16.49,0l0,17l-17.51,0l0,-17l-16.49,0l0,17l-51.51,0l0,-17l-16.49,0l0,17l-68.51,0l0,-17.51l51,0l0,-33.49l-16.49,0l0,17l-51,0l0,17l-17,0l0,17l-68.51,0l0,-17l-33.49,0l0,17l-34.51,0l0,-17l-16.49,0l0,17l-34.51,0l0,-17l-17,0l0,-17.51l17,0l0,-16.49l-33.49,0l0,17l-17,0l0,34l-34.51,0l0,-17.51l17,0l0,-33.49l-17,0l0,-17l-33.49,0l0,16.49l17,0l0,17.51l-17,0l0,34l-17.51,0l0,-17l-17,0l0,-17l-17,0l0,-51.51l17,0l0,-17l34,0l0,-33.49l-16.49,0l0,17l-34.51,0l0,-17.51l34,0l0,-33.49l-16.49,0l0,17l-34,0l0,17l-17.51,0l0,-17.51l17,0l0,-16.49l-67.49,0l0,16.49l17,0l0,17.51l-17.51,0l0,-17l-34,0l0,-17l-17,0l0,-51.51l17,0l0,-16.49l-17,0l0,-119.51l17.51,0l0,17l16.49,0l0,-17l17.51,0l0,17l50.49,0l0,-16.49l-34,0l0,-17l-34,0l0,-17l-17,0l0,-34l-17,0l0,-34.51l51.51,0l0,17l16.49,0l0,-33.49l-34,0l0,-17l-16.49,0l0,17l-17.51,0l0,-17.51l17,0l0,-16.49l-17,0l0,-34.51l17,0l0,-17l34,0l0,-16.49l-51,0l0,-34.51l17,0l0,-33.49l-17,0l0,-17.51l17.51,0l0,17l33.49,0l0,-16.49l-17,0l0,-17Zm629.51,-204l0,16.49l16.49,0l0,-16.49l-16.49,0Zm-493,118.49l16.49,0l0,-16.49l-16.49,0l0,16.49Zm-85.51,34.51l-16.49,0l0,16.49l16.49,0l0,-16.49Zm578,-136l-16.49,0l0,17l-17,0l0,16.49l17,0l0,17l16.49,0l0,-50.49Zm-509.49,84.49l16.49,0l0,-33.49l-16.49,0l0,33.49Zm237.49,-67.49l-33.49,0l0,16.49l17,0l0,17l33.49,0l0,-16.49l-17,0l0,-17Zm-220.49,119l0,34l-17,0l0,17l-51.51,0l0,-17l-16.49,0l0,17l-17,0l0,33.49l33.49,0l0,-17l17.51,0l0,17l17,0l0,17l16.49,0l0,-34l17,0l0,-17l17,0l0,-34l17,0l0,-16.49l-33.49,0Zm543.49,-153l-16.49,0l0,33.49l33.49,0l0,-16.49l-17,0l0,-17Zm-543.49,51l0,16.49l16.49,0l0,-16.49l-16.49,0Zm68,-17l0,33.49l16.49,0l0,-17l17.51,0l0,34l17,0l0,34l16.49,0l0,-68l17,0l0,-16.49l-84.49,0Zm-102.51,136l-33.49,0l0,16.49l33.49,0l0,-16.49Zm51.51,-51l0,16.49l33.49,0l0,-17l17.51,0l0,17l33.49,0l0,-50.49l-16.49,0l0,17l-17.51,0l0,-34l-17,0l0,-34l-16.49,0l0,34l-17,0l0,33.49l16.49,0l0,-17l17.51,0l0,17.51l-17,0l0,17l-17,0Zm408,-119l0,17l-17,0l0,33.49l17,0l0,17.51l-17.51,0l0,-17l-16.49,0l0,17l-17,0l0,16.49l17,0l0,17.51l-17,0l0,17l-17,0l0,17l-102,0l0,16.49l17,0l0,17.51l-17,0l0,16.49l33.49,0l0,-34l17.51,0l0,34l50.49,0l0,-17l51,0l0,-33.49l-17,0l0,-17.51l17,0l0,-34l17.51,0l0,51l16.49,0l0,-17l17,0l0,-16.49l-17,0l0,-17.51l17,0l0,-16.49l-17,0l0,-68l-16.49,0Zm-85,152.49l0,17.51l-17.51,0l0,-17.51l17.51,0Zm255,255.51l0,50.49l50.49,0l0,-50.49l-50.49,0Zm34,16.49l0,17.51l-17.51,0l0,-17.51l17.51,0Zm50.49,-153l0,-16.49l-16.49,0l0,16.49l16.49,0Zm0,323.51l-17,0l0,-17l-16.49,0l0,33.49l33.49,0l0,-16.49Zm17,-153l-33.49,0l0,16.49l17,0l0,17l16.49,0l0,-33.49Zm-102,-221.51l0,-16.49l-17,0l0,-17.51l17,0l0,-16.49l-33.49,0l0,50.49l33.49,0Zm85,-33.49l-33.49,0l0,33.49l16.49,0l0,-17l17,0l0,-16.49Zm-424.49,679.49l50.49,0l0,-50.49l-33.49,0l0,34l-17,0l0,16.49Zm220.49,-441.49l-16.49,0l0,16.49l16.49,0l0,-16.49Zm221,-221l-16.49,0l0,17l-17,0l0,16.49l17,0l0,17l33.49,0l0,-16.49l-17,0l0,-34Zm-306,628.49l0,-33.49l-17,0l0,-17.51l17.51,0l0,17l16.49,0l0,-33.49l-50.49,0l0,34l-34,0l0,50.49l16.49,0l0,-17l17,0l0,-17l17.51,0l0,17l16.49,0Zm187.51,-339.49l0,16.49l50.49,0l0,-33.49l-33.49,0l0,17l-17,0Zm-85.51,373.49l0,-17l17,0l0,-16.49l-67.49,0l0,16.49l17,0l0,17l33.49,0Zm119.51,-646l16.49,0l0,-16.49l-16.49,0l0,16.49Zm-17,578l50.49,0l0,-50.49l-50.49,0l0,50.49Zm34,-34l0,17.51l-17.51,0l0,-17.51l17.51,0Zm-102,-288.49l0,16.49l16.49,0l0,-16.49l-16.49,0Zm-51.51,17l-33.49,0l0,17l-17,0l0,16.49l67.49,0l0,-16.49l-17,0l0,-17Zm221.51,170l0,16.49l16.49,0l0,-16.49l-16.49,0Zm-136.51,-561l-16.49,0l0,33.49l16.49,0l0,-33.49Zm85,34l-16.49,0l0,17l-17,0l0,33.49l33.49,0l0,-50.49Zm-102,-34.51l0,-33.49l-50.49,0l0,33.49l16.49,0l0,-17l17.51,0l0,17l16.49,0Zm68,731l0,-16.49l-16.49,0l0,16.49l16.49,0Zm-101.49,-339.49l0,16.49l16.49,0l0,-16.49l-16.49,0Zm169.49,170l-16.49,0l0,17l-17.51,0l0,-17l-16.49,0l0,17l-51,0l0,16.49l17,0l0,34l16.49,0l0,-17l17,0l0,-17l51.51,0l0,17.51l-17,0l0,33.49l16.49,0l0,-17l17,0l0,-50.49l-17,0l0,-17Zm-84.49,-459.51l16.49,0l0,-16.49l-16.49,0l0,16.49Zm-17.51,646l0,-16.49l-50.49,0l0,16.49l17,0l0,17l16.49,0l0,-17l17,0Zm-85,-527l0,-33.49l-16.49,0l0,17l-17.51,0l0,-34l-16.49,0l0,34l-34.51,0l0,-34l-51,0l0,-17l-16.49,0l0,33.49l17,0l0,17l34,0l0,17l34,0l0,17l34,0l0,17.51l-51,0l0,50.49l16.49,0l0,-34l17.51,0l0,51l16.49,0l0,-51l17,0l0,-51l17,0Zm0.51,-119l50.49,0l0,-16.49l-34,0l0,-51.51l17,0l0,-16.49l-34,0l0,-17l-16.49,0l0,50.49l17,0l0,17.51l-17,0l0,16.49l17,0l0,17Zm169.49,306.51l-16.49,0l0,17l-34,0l0,16.49l50.49,0l0,-33.49Zm-170,-255.51l0,-16.49l-17,0l0,-51l-16.49,0l0,17l-17.51,0l0,-34.51l34,0l0,-16.49l-50.49,0l0,34l-17,0l0,16.49l17,0l0,34.51l-17,0l0,33.49l33.49,0l0,-17l51,0Zm-33.49,-34l0,17.51l-17.51,0l0,-17.51l17.51,0Zm67.49,646l0,-16.49l-16.49,0l0,16.49l16.49,0Zm153,-289l0,-16.49l-16.49,0l0,16.49l16.49,0Zm-204,-102l0,-16.49l-33.49,0l0,16.49l33.49,0Zm-152.49,-441.49l0,33.49l16.49,0l0,-33.49l-16.49,0Zm-119.51,815.49l51,0l0,-16.49l-17,0l0,-17l-50.49,0l0,50.49l16.49,0l0,-17Zm-221,-136l0,-16.49l-16.49,0l0,16.49l16.49,0Zm34,102l0,-16.49l-33.49,0l0,16.49l33.49,0Zm-101.49,-119l50.49,0l0,-16.49l-34,0l0,-17l-17,0l0,-17l-33.49,0l0,17l-34,0l0,16.49l34,0l0,17l16.49,0l0,-17l17.51,0l0,17Zm136,-543.49l0,33.49l16.49,0l0,-33.49l-16.49,0Zm-136,255l0,50.49l50.49,0l0,-50.49l-50.49,0Zm34,16.49l0,17.51l-17.51,0l0,-17.51l17.51,0Zm-34.51,136.51l-16.49,0l0,33.49l16.49,0l0,-33.49Zm-50.49,-170.51l33.49,0l0,-17l17,0l0,-33.49l-17,0l0,-17l-16.49,0l0,34l-34,0l0,16.49l17,0l0,17Zm34,-102l0,34l16.49,0l0,-17l17,0l0,-17l34,0l0,-33.49l-16.49,0l0,17l-17.51,0l0,-17l-33.49,0l0,17l-51,0l0,16.49l51,0Zm0,221l16.49,0l0,-17l34,0l0,-16.49l-51,0l0,-17l-33.49,0l0,33.49l34,0l0,17Zm-17.51,204l0,-16.49l-16.49,0l0,16.49l16.49,0Zm510,-696.49l-16.49,0l0,33.49l16.49,0l0,-33.49Zm-289,815.49l0,-33.49l-34,0l0,-51l-16.49,0l0,67.49l17,0l0,17l33.49,0Zm204,-764.49l-50.49,0l0,50.49l50.49,0l0,-50.49Zm-16.49,16.49l0,17.51l-17.51,0l0,-17.51l17.51,0Zm-357,153.51l-0,16.49l16.49,0l0,-16.49l-16.49,0Zm221,595l0,16.49l16.49,0l0,-16.49l-16.49,0Zm-170,-578l0,16.49l16.49,0l0,-16.49l-16.49,0Zm51,-68l0,16.49l16.49,0l0,-16.49l-16.49,0Zm221,-153l0,16.49l16.49,0l0,-16.49l-16.49,0Zm-408,527l-0,16.49l16.49,0l0,-16.49l-16.49,0Zm170,237.49l16.49,0l0,-16.49l-16.49,0l0,16.49Zm323,-781.49l0,16.49l16.49,0l0,-16.49l-16.49,0Zm-238,119l0,33.49l17,0l0,17l17,0l0,17l17,0l0,17l34,0l0,17l34,0l0,17l16.49,0l0,-84.49l-33.49,0l0,17l-17,0l0,17l-17.51,0l0,-17.51l17,0l0,-16.49l-17,0l0,-17.51l17,0l0,-17l34,0l0,-17l17,0l0,-33.49l-16.49,0l0,17l-17,0l0,17l-17.51,0l0,-17l-17,0l0,-17.51l17,0l0,-33.49l-16.49,0l0,17l-17,0l0,50.49l17,0l0,17.51l-17,0l0,17l-17.51,0l0,-17l-33.49,0Zm34,730.49l16.49,0l0,-16.49l-16.49,0l0,16.49Zm-119,-119l16.49,0l0,-16.49l-16.49,0l0,16.49Zm-17,-34l16.49,0l0,-67.49l-50.49,0l0,33.49l16.49,0l0,-17l17.51,0l0,17.51l-17,0l0,16.49l17,0l0,17Zm-153,-118.49l0,16.49l16.49,0l0,-16.49l-16.49,0Zm136,254.49l16.49,0l0,-16.49l-16.49,0l0,16.49Zm-51,-305.49l0,16.49l34,0l0,17.51l-34,0l0,16.49l50.49,0l0,-17l17.51,0l0,34l17,0l0,17l33.49,0l0,-34l17,0l0,-16.49l-34,0l0,-17l-34,0l0,-17l-34,0l0,-17.51l17,0l0,-16.49l-17,0l0,-17l-16.49,0l0,17l-17,0l0,16.49l17,0l0,17.51l-17,0Zm68,-323l0,16.49l16.49,0l0,-16.49l-16.49,0Zm-119,-34l0,16.49l16.49,0l0,-16.49l-16.49,0Zm476,560.49l50.49,0l0,-16.49l-34,0l0,-17l-33.49,0l0,16.49l17,0l0,17Zm84.49,-289l0,-16.49l-16.49,0l0,16.49l16.49,0Zm-85,-340l0,-16.49l-16.49,0l0,16.49l16.49,0Zm153.51,-84.49l0,16.49l16.49,0l0,-16.49l-16.49,0Zm67.49,781.49l0,-84.49l-16.49,0l0,34l-17,0l0,16.49l17,0l0,34l16.49,0Zm-322.49,-17l50.49,0l0,-50.49l-50.49,0l0,50.49Zm34,-34l0,17.51l-17.51,0l0,-17.51l17.51,0Zm288.49,-85l0,-16.49l-33.49,0l0,16.49l33.49,0Zm-51,153l0,-33.49l-34,0l0,-17l-17,0l0,-51l-16.49,0l0,17l-51,0l0,16.49l17,0l0,34l51,0l0,17l34,0l0,17l16.49,0Zm-67.49,-68l0,17.51l-17.51,0l0,-17.51l17.51,0Zm-34.51,-255l0,-16.49l-16.49,0l0,16.49l16.49,0Zm-34,-68l0,-50.49l-16.49,0l0,34l-17,0l0,33.49l16.49,0l0,-17l17,0Zm0,-254.49l-16.49,0l0,16.49l16.49,0l0,-16.49Zm-102,17l-33.49,0l0,33.49l16.49,0l0,-17l17,0l0,-16.49Zm272,-51l-33.49,0l0,16.49l33.49,0l0,-16.49Zm-187,-68l-16.49,0l0,16.49l16.49,0l0,-16.49Zm-34,119l-16.49,0l0,50.49l16.49,0l0,-17l17,0l0,-16.49l-17,0l0,-17Zm68,33.49l0,-16.49l-16.49,0l0,16.49l16.49,0Zm153.51,-101.49l0,16.49l33.49,0l0,-16.49l-33.49,0Zm-153.51,390.49l0,-16.49l-17,0l0,-17.51l17,0l0,-16.49l-67.49,0l0,16.49l34,0l0,51l16.49,0l0,-17l17,0Zm34,-50.49l-16.49,0l0,16.49l16.49,0l0,-16.49Zm136,221l-50.49,0l0,33.49l16.49,0l0,-17l34,0l0,-16.49Zm-288.49,-510l0,16.49l16.49,0l0,-16.49l-16.49,0Zm-51.51,-34.51l0,-16.49l-16.49,0l0,16.49l16.49,0Zm391.51,561.51l0,16.49l16.49,0l0,-16.49l-16.49,0Zm-204.51,-187l-16.49,0l0,34l-34,0l0,16.49l17,0l0,17.51l-17,0l0,16.49l17,0l0,17l17,0l0,34.51l-17,0l0,16.49l17,0l0,17.51l-34,0l0,16.49l34,0l0,17l16.49,0l0,-68l34,0l0,-17l17,0l0,-16.49l-17,0l0,-17l-16.49,0l0,34l-17.51,0l0,-34.51l17,0l0,-17l17.51,0l0,17l16.49,0l0,-17l17.51,0l0,17.51l-17,0l0,16.49l17,0l0,17l16.49,0l0,-34l17,0l0,-16.49l-17,0l0,-51.51l17.51,0l0,34l51,0l0,17l16.49,0l0,-17l34,0l0,-16.49l-17,0l0,-17l-34,0l0,-17l-17,0l0,-17l-33.49,0l0,17l-34,0l0,17l-17,0l0,16.49l17,0l0,17.51l-68.51,0l0,-17.51l17,0l0,-16.49l-17,0l0,-17Zm136.51,16.49l0,17.51l-17.51,0l0,-17.51l17.51,0Zm-153.51,-203.49l-33.49,0l0,16.49l33.49,0l0,-16.49Zm-51,424.49l0,-16.49l-17,0l0,-17l-16.49,0l0,33.49l33.49,0Zm102.51,-663l16.49,0l0,-16.49l-16.49,0l0,16.49Zm-34.51,323.51l-16.49,0l0,16.49l16.49,0l0,-16.49Zm-67.49,-170.51l16.49,0l0,-16.49l-16.49,0l0,16.49Zm271.49,374.51l0,-34l-16.49,0l0,17l-34,0l0,17l-51,0l0,33.49l16.49,0l0,-17l34.51,0l0,17l16.49,0l0,-17l51,0l0,-16.49l-17,0Zm-255,-561.51l0,-16.49l-16.49,0l0,16.49l16.49,0Zm51,408l0,-16.49l-16.49,0l0,16.49l16.49,0Zm-373.49,153.51l0,16.49l17,0l0,34l16.49,0l0,-34l17.51,0l0,34l17,0l0,34.51l-17.51,0l0,-17l-33.49,0l0,16.49l17,0l0,17l34,0l0,17l16.49,0l0,-17l17.51,0l0,17l17,0l0,51l16.49,0l0,-51l34,0l0,-17l17,0l0,-16.49l-17,0l0,-51.51l17.51,0l0,51l16.49,0l0,-34l17.51,0l0,34.51l-17,0l0,16.49l33.49,0l0,-68l34,0l0,-17l17,0l0,-17l17.51,0l0,17.51l-17,0l0,16.49l50.49,0l0,-16.49l-17,0l0,-34l-34,0l0,-17.51l34,0l0,-16.49l-34,0l0,-17l-16.49,0l0,34l-17,0l0,16.49l17,0l0,17.51l-17,0l0,17l-34,0l0,17l-17.51,0l0,-17l-17,0l0,-17l-16.49,0l0,17l-34,0l0,33.49l17,0l0,17.51l-17,0l0,16.49l17,0l0,17.51l-17.51,0l0,-17l-17,0l0,-17l-16.49,0l0,17l-17.51,0l0,-68l-17,0l0,-51l-17,0l0,-17l-16.49,0l0,34l-17,0l0,17l-17,0Zm-153,-0.51l16.49,0l0,-16.49l-16.49,0l0,16.49Zm102,-85l33.49,0l0,-84.49l-16.49,0l0,17l-34,0l0,33.49l34,0l0,17.51l-17,0l0,16.49Zm357,-339.49l0,16.49l16.49,0l0,-16.49l-16.49,0Zm-425,102l0,16.49l16.49,0l0,-16.49l-16.49,0Zm16.49,356.49l0,-16.49l-16.49,0l0,16.49l16.49,0Zm204,-441.49l-16.49,0l0,16.49l16.49,0l0,-16.49Zm-237.49,118.49l16.49,0l0,-16.49l-16.49,0l0,16.49Zm170,408.51l0,16.49l16.49,0l0,-16.49l-16.49,0Zm254.49,-442l-16.49,0l0,16.49l16.49,0l0,-16.49Zm-424.49,289l0,16.49l16.49,0l0,-16.49l-16.49,0Zm238,220.49l16.49,0l0,-16.49l-16.49,0l0,16.49Zm84.49,-543.49l-16.49,0l0,50.49l17,0l0,17l17,0l0,34.51l-17.51,0l0,-17l-17,0l0,-34l-17,0l0,-17l-17,0l0,-17l-84.49,0l0,16.49l17,0l0,34l16.49,0l0,-34l34.51,0l0,17l17,0l0,17l17,0l0,17.51l-17.51,0l0,-17l-33.49,0l0,16.49l17,0l0,17l17,0l0,17.51l-17,0l0,16.49l17,0l0,17l50.49,0l0,-16.49l-34,0l0,-17.51l68,0l0,-17l17.51,0l0,17l34,0l0,17l16.49,0l0,-34l34,0l0,-16.49l-50.49,0l0,17l-17.51,0l0,-17.51l17,0l0,-16.49l-34,0l0,-17l-17,0l0,-17l-34,0l0,-34Zm-16.49,526.49l16.49,0l0,-33.49l-33.49,0l0,16.49l17,0l0,17Zm135.49,-374l0,-16.49l-16.49,0l0,16.49l16.49,0Zm-391,187.51l-33.49,0l0,16.49l33.49,0l0,-16.49Zm68.51,34l0,16.49l16.49,0l0,-16.49l-16.49,0Zm-153,-51l0,16.49l16.49,0l0,-16.49l-16.49,0Zm441.49,-289.51l0,-16.49l-16.49,0l0,16.49l16.49,0Zm-288.49,-84.49l0,16.49l17,0l0,17.51l-17,0l0,33.49l16.49,0l0,-17l34,0l0,-17l17,0l0,-16.49l-17,0l0,-17l-17,0l0,-17l-16.49,0l0,17l-17,0Zm169.49,-119.51l0,-16.49l-16.49,0l0,16.49l16.49,0Zm-203.49,170.51l0,16.49l16.49,0l0,-16.49l-16.49,0Zm17,-34l0,16.49l16.49,0l0,-16.49l-16.49,0Zm118.49,-34l-16.49,0l0,16.49l16.49,0l0,-16.49Zm-16.49,594.49l33.49,0l0,-33.49l-16.49,0l0,17l-17,0l0,16.49Zm220.49,-713.49l-16.49,0l0,16.49l16.49,0l0,-16.49Zm-153,153l-16.49,0l0,17l-34,0l0,16.49l51,0l0,17l16.49,0l0,-17l17,0l0,-16.49l-34,0l0,-17Zm-271.49,152.49l67.49,0l0,-17l17,0l0,-17l34.51,0l0,17l16.49,0l0,-33.49l-17,0l0,-17.51l17,0l0,-16.49l-33.49,0l0,17l-34,0l0,17l-51,0l0,16.49l17,0l0,17.51l-34,0l0,16.49Zm51,-101.49l0,33.49l16.49,0l0,-33.49l-16.49,0Zm-102,289l0,16.49l16.49,0l0,-16.49l-16.49,0Zm425,-357l0,16.49l16.49,0l0,-16.49l-16.49,0Zm-255,459l0,33.49l16.49,0l0,-33.49l-16.49,0Zm339.49,16.49l0,-16.49l-33.49,0l0,16.49l33.49,0Zm-84.49,-374l16.49,0l0,-16.49l-16.49,0l0,16.49Zm-136.51,85l0,-33.49l-33.49,0l0,16.49l17,0l0,17l16.49,0Zm357,323.51l0,-51l-33.49,0l0,16.49l17,0l0,17.51l-17,0l0,16.49l17,0l0,34l17,0l0,17l16.49,0l0,-50.49l-17,0Zm-492.49,-289.51l16.49,0l0,-17l17,0l0,-16.49l-33.49,0l0,33.49Zm526.49,340.51l-16.49,0l0,16.49l16.49,0l0,-16.49Zm-475.49,-476l0,16.49l16.49,0l0,-16.49l-16.49,0Zm51,288.49l16.49,0l0,-50.49l-16.49,0l0,17l-17,0l0,16.49l17,0l0,17Zm50.49,85l0,-33.49l-16.49,0l0,33.49l16.49,0Zm0,-271.49l-16.49,0l0,33.49l16.49,0l0,-33.49Zm272.51,306l0,16.49l16.49,0l0,-16.49l-16.49,0Zm-323.51,-374l-33.49,0l0,16.49l33.49,0l0,-16.49Zm-67.49,170l0,16.49l16.49,0l0,-16.49l-16.49,0Zm340,-68l0,16.49l16.49,0l0,-16.49l-16.49,0Zm-102.51,-187l-16.49,0l0,33.49l16.49,0l0,-33.49Zm-186.49,0l0,16.49l16.49,0l0,-16.49l-16.49,0Zm203.49,289l-16.49,0l0,16.49l16.49,0l0,-16.49Zm238.51,51l0,16.49l33.49,0l0,-16.49l-33.49,0Zm-272,33.49l16.49,0l0,-16.49l-16.49,0l0,16.49Zm67.49,-135.49l-16.49,0l0,16.49l16.49,0l0,-16.49Zm-288.49,-119l0,33.49l16.49,0l0,-33.49l-16.49,0Zm305.49,136l-16.49,0l0,17l-34,0l0,16.49l34,0l0,17l16.49,0l0,-50.49Zm102.51,153l0,16.49l16.49,0l0,-16.49l-16.49,0Zm-204,-255l0,50.49l50.49,0l0,-50.49l-50.49,0Zm34,16.49l0,17.51l-17.51,0l0,-17.51l17.51,0Zm-306,-33.49l-0,16.49l16.49,0l0,-16.49l-16.49,0Zm322.49,203.49l0,-16.49l-34,0l0,-51.51l34,0l0,-50.49l-50.49,0l0,17l-17,0l0,34l-17,0l0,17l-17,0l0,16.49l17,0l0,17l16.49,0l0,-34l17.51,0l0,34.51l-17,0l0,17l-17.51,0l0,-17l-34,0l0,-34l-16.49,0l0,34l-17,0l0,16.49l34,0l0,34l33.49,0l0,-17l17.51,0l0,17l16.49,0l0,-34l51,0Zm-16.49,-102l0,17.51l-17.51,0l0,-17.51l17.51,0Zm-170,-254.49l0,16.49l16.49,0l0,-16.49l-16.49,0Zm407.49,425l-16.49,0l0,16.49l16.49,0l0,-16.49Zm-510,-204.51l0,-16.49l-16.49,0l0,16.49l16.49,0Zm323,0l0,-16.49l-16.49,0l0,16.49l16.49,0Zm-254.49,102l16.49,0l0,-16.49l-16.49,0l0,16.49Zm101.49,119.51l-16.49,0l0,16.49l16.49,0l0,-16.49Zm-101.49,-153.51l16.49,0l0,-33.49l-33.49,0l0,16.49l17,0l0,17Zm85,-84.49l0,16.49l16.49,0l0,-16.49l-16.49,0Zm-119,-17l0,16.49l34,0l0,17l33.49,0l0,-17l17,0l0,-33.49l-16.49,0l0,17l-34.51,0l0,-17l-16.49,0l0,17l-17,0Zm101.49,17l-16.49,0l0,16.49l16.49,0l0,-16.49Zm85,50.49l0,-33.49l-16.49,0l0,17l-17.51,0l0,-17l-16.49,0l0,50.49l33.49,0l0,-17l17,0Zm-68,119.51l-16.49,0l0,16.49l16.49,0l0,-16.49Zm0.51,-85.51l16.49,0l0,-16.49l-16.49,0l0,16.49Zm-0.51,-67.49l-16.49,0l0,16.49l16.49,0l0,-16.49Zm0,50.49l0,-16.49l-16.49,0l0,16.49l16.49,0Zm-101.49,34l16.49,0l0,-16.49l-16.49,0l0,16.49Zm51,-17l16.49,0l0,-67.49l-16.49,0l0,67.49Zm577.49,340.51l0,-34.51l17,0l0,-17l17.51,0l0,17.51l-17,0l0,34l-17.51,0Zm-747.49,-748.51l0,17.51l-17.51,0l0,-17.51l17.51,0Zm782,204l0,17.51l-17.51,0l0,-17.51l17.51,0Zm-51,544l0,17.51l-17.51,0l0,-17.51l17.51,0Z" style="fill:#fff;"/><g><g><g><path d="M34,267.182l0,119l119,0l0,-119l-119,0Zm102,102l-85,0l0,-85l85,0l0,85Z" style="fill:#fff;fill-rule:nonzero;"/></g></g><g><g><path d="M816,267.182l0,119l119,0l0,-119l-119,0Zm102,102l-85,0l0,-85l85,0l0,85Z" style="fill:#fff;fill-rule:nonzero;"/></g></g><g><g><path d="M34,1049.182l0,119l119,0l0,-119l-119,0Zm102,102l-85,0l0,-85l85,0l0,85Z" style="fill:#fff;fill-rule:nonzero;"/></g></g><g><g><rect x="68" y="301.182" width="51" height="51" style="fill:#fff;"/></g></g><g><g><rect x="850" y="301.182" width="51" height="51" style="fill:#fff;"/></g></g><g><g><rect x="68" y="1083.182" width="51" height="51" style="fill:#fff;"/></g></g></g><g transform="matrix(1,0,0,1,0,-45.960217)"><g transform="matrix(108,0,0,108,36.732,131.089244)"><path d="M0.318,0.012c-0.055,0 -0.103,-0.012 -0.144,-0.036c-0.041,-0.024 -0.072,-0.062 -0.095,-0.115c-0.022,-0.053 -0.034,-0.122 -0.034,-0.207c0,-0.087 0.011,-0.157 0.034,-0.21c0.022,-0.053 0.054,-0.092 0.095,-0.117c0.041,-0.025 0.089,-0.037 0.144,-0.037c0.062,0 0.11,0.013 0.146,0.039c0.036,0.026 0.065,0.066 0.087,0.12l-0.106,0.057c-0.009,-0.032 -0.022,-0.058 -0.04,-0.077c-0.018,-0.019 -0.047,-0.029 -0.086,-0.029c-0.043,0 -0.077,0.014 -0.102,0.042c-0.025,0.028 -0.037,0.069 -0.037,0.122l0,0.174c0,0.053 0.012,0.094 0.037,0.122c0.025,0.028 0.059,0.042 0.102,0.042c0.04,0 0.07,-0.01 0.089,-0.032c0.02,-0.021 0.034,-0.048 0.044,-0.081l0.102,0.06c-0.023,0.052 -0.052,0.092 -0.089,0.12c-0.036,0.028 -0.085,0.042 -0.147,0.042Z" style="fill:#fff;fill-rule:nonzero;"/></g><g transform="matrix(108,0,0,108,99.48,131.089244)"><path d="M0.253,0.012c-0.046,0 -0.086,-0.01 -0.118,-0.03c-0.033,-0.02 -0.058,-0.05 -0.075,-0.09c-0.017,-0.04 -0.026,-0.091 -0.026,-0.154c0,-0.063 0.009,-0.114 0.026,-0.155c0.017,-0.04 0.042,-0.07 0.075,-0.089c0.033,-0.019 0.072,-0.029 0.118,-0.029c0.046,0 0.086,0.01 0.118,0.029c0.033,0.019 0.058,0.049 0.075,0.089c0.017,0.04 0.026,0.092 0.026,0.155c0,0.062 -0.009,0.113 -0.026,0.154c-0.017,0.04 -0.042,0.07 -0.075,0.09c-0.033,0.02 -0.072,0.03 -0.118,0.03Zm0,-0.098c0.03,0 0.053,-0.009 0.069,-0.027c0.016,-0.018 0.024,-0.045 0.024,-0.081l0,-0.134c0,-0.036 -0.008,-0.063 -0.024,-0.081c-0.016,-0.018 -0.039,-0.027 -0.069,-0.027c-0.03,0 -0.053,0.009 -0.069,0.027c-0.016,0.018 -0.024,0.045 -0.024,0.081l0,0.134c0,0.036 0.008,0.063 0.024,0.081c0.016,0.018 0.039,0.027 0.069,0.027Z" style="fill:#fff;fill-rule:nonzero;"/></g><g transform="matrix(108,0,0,108,154.236,131.089244)"><path d="M0.187,-0l-0.121,-0l0,-0.522l0.121,0l0,0.088l0.014,0c0.009,-0.029 0.023,-0.053 0.043,-0.072c0.02,-0.019 0.047,-0.028 0.082,-0.028c0.047,0 0.083,0.016 0.108,0.048c0.025,0.032 0.038,0.077 0.038,0.135l0,0.351l-0.121,-0l0,-0.329c0,-0.034 -0.006,-0.06 -0.018,-0.077c-0.012,-0.018 -0.032,-0.026 -0.058,-0.026c-0.016,0 -0.03,0.003 -0.044,0.01c-0.013,0.007 -0.024,0.016 -0.032,0.028c-0.008,0.012 -0.012,0.027 -0.012,0.045l0,0.349Z" style="fill:#fff;fill-rule:nonzero;"/></g><g transform="matrix(108,0,0,108,211.692,131.089244)"><path d="M0.224,0.012c-0.043,0 -0.081,-0.008 -0.114,-0.024c-0.033,-0.016 -0.062,-0.039 -0.086,-0.07l0.074,-0.072c0.017,0.023 0.035,0.041 0.057,0.053c0.021,0.012 0.045,0.018 0.072,0.018c0.025,0 0.044,-0.005 0.057,-0.016c0.013,-0.011 0.019,-0.027 0.019,-0.048c0,-0.017 -0.004,-0.03 -0.012,-0.039c-0.008,-0.01 -0.023,-0.016 -0.043,-0.019l-0.049,-0.009c-0.036,-0.007 -0.066,-0.017 -0.089,-0.029c-0.023,-0.012 -0.04,-0.029 -0.051,-0.05c-0.011,-0.021 -0.016,-0.046 -0.016,-0.077c0,-0.055 0.016,-0.096 0.048,-0.123c0.032,-0.027 0.077,-0.041 0.136,-0.041c0.027,0 0.052,0.003 0.074,0.009c0.022,0.006 0.042,0.015 0.06,0.027c0.018,0.012 0.035,0.027 0.049,0.044l-0.071,0.071c-0.013,-0.017 -0.03,-0.03 -0.048,-0.04c-0.019,-0.01 -0.04,-0.015 -0.064,-0.015c-0.023,0 -0.041,0.005 -0.052,0.015c-0.012,0.01 -0.018,0.026 -0.018,0.047c0,0.017 0.005,0.03 0.014,0.039c0.009,0.009 0.024,0.015 0.044,0.019l0.05,0.009c0.055,0.01 0.094,0.027 0.117,0.05c0.024,0.024 0.035,0.057 0.035,0.1c0,0.036 -0.008,0.067 -0.023,0.092c-0.015,0.026 -0.037,0.045 -0.066,0.059c-0.029,0.013 -0.064,0.02 -0.105,0.02Z" style="fill:#fff;fill-rule:nonzero;"/></g><g transform="matrix(108,0,0,108,260.292,131.089244)"><path d="M0.345,-0l0,-0.088l-0.014,0c-0.009,0.029 -0.024,0.052 -0.043,0.071c-0.02,0.019 -0.047,0.028 -0.083,0.028c-0.046,0 -0.082,-0.016 -0.107,-0.048c-0.025,-0.032 -0.038,-0.077 -0.038,-0.136l0,-0.35l0.121,0l0,0.33c0,0.034 0.006,0.06 0.019,0.077c0.012,0.017 0.032,0.026 0.058,0.026c0.016,0 0.031,-0.003 0.044,-0.01c0.013,-0.006 0.024,-0.016 0.032,-0.029c0.008,-0.013 0.012,-0.028 0.012,-0.045l0,-0.35l0.121,0l0,0.522l-0.121,-0Z" style="fill:#fff;fill-rule:nonzero;"/></g><g transform="matrix(108,0,0,108,317.748,131.089244)"><path d="M0.247,-0l-0.063,-0c-0.042,-0 -0.073,-0.009 -0.091,-0.029c-0.019,-0.019 -0.028,-0.048 -0.028,-0.088l0,-0.624l0.121,0l0,0.643l0.061,0l0,0.097Z" style="fill:#fff;fill-rule:nonzero;"/></g><g transform="matrix(108,0,0,108,346.152,131.089244)"><path d="M0.298,-0l-0.087,-0c-0.042,-0 -0.072,-0.009 -0.091,-0.028c-0.019,-0.019 -0.029,-0.048 -0.029,-0.089l0,-0.309l-0.069,0l0,-0.097l0.036,0c0.018,0 0.03,-0.004 0.036,-0.012c0.006,-0.008 0.009,-0.021 0.009,-0.038l0,-0.092l0.109,0l0,0.142l0.094,0l0,0.097l-0.094,0l0,0.329l0.086,0l0,0.097Z" style="fill:#fff;fill-rule:nonzero;"/></g><g transform="matrix(108,0,0,108,382.008,131.089244)"><path d="M0.263,0.012c-0.046,0 -0.086,-0.01 -0.12,-0.03c-0.034,-0.02 -0.061,-0.05 -0.08,-0.09c-0.019,-0.04 -0.029,-0.091 -0.029,-0.154c0,-0.063 0.009,-0.114 0.026,-0.155c0.017,-0.04 0.042,-0.07 0.075,-0.089c0.033,-0.019 0.072,-0.029 0.118,-0.029c0.046,0 0.086,0.01 0.118,0.029c0.032,0.019 0.057,0.049 0.074,0.089c0.017,0.04 0.025,0.092 0.025,0.155l0,0.03l-0.309,0l-0,0.033c0,0.035 0.01,0.062 0.03,0.082c0.02,0.02 0.046,0.03 0.08,0.03c0.029,0 0.053,-0.006 0.072,-0.019c0.02,-0.013 0.037,-0.031 0.051,-0.053l0.065,0.069c-0.019,0.031 -0.045,0.055 -0.078,0.074c-0.033,0.018 -0.072,0.028 -0.117,0.028Zm-0.01,-0.453c-0.02,0 -0.037,0.004 -0.051,0.012c-0.014,0.008 -0.024,0.02 -0.031,0.036c-0.007,0.016 -0.011,0.036 -0.011,0.06l0,0.027l0.182,0l0,-0.027c0,-0.024 -0.003,-0.044 -0.01,-0.06c-0.007,-0.016 -0.017,-0.028 -0.03,-0.036c-0.013,-0.008 -0.03,-0.012 -0.05,-0.012Z" style="fill:#fff;fill-rule:nonzero;"/></g><g transform="matrix(108,0,0,108,436.44,131.089244)"></g><g transform="matrix(108,0,0,108,459.336,131.089244)"><path d="M0.253,0.012c-0.046,0 -0.086,-0.01 -0.118,-0.03c-0.033,-0.02 -0.058,-0.05 -0.075,-0.09c-0.017,-0.04 -0.026,-0.091 -0.026,-0.154c0,-0.063 0.009,-0.114 0.026,-0.155c0.017,-0.04 0.042,-0.07 0.075,-0.089c0.033,-0.019 0.072,-0.029 0.118,-0.029c0.046,0 0.086,0.01 0.118,0.029c0.033,0.019 0.058,0.049 0.075,0.089c0.017,0.04 0.026,0.092 0.026,0.155c0,0.062 -0.009,0.113 -0.026,0.154c-0.017,0.04 -0.042,0.07 -0.075,0.09c-0.033,0.02 -0.072,0.03 -0.118,0.03Zm0,-0.098c0.03,0 0.053,-0.009 0.069,-0.027c0.016,-0.018 0.024,-0.045 0.024,-0.081l0,-0.134c0,-0.036 -0.008,-0.063 -0.024,-0.081c-0.016,-0.018 -0.039,-0.027 -0.069,-0.027c-0.03,0 -0.053,0.009 -0.069,0.027c-0.016,0.018 -0.024,0.045 -0.024,0.081l0,0.134c0,0.036 0.008,0.063 0.024,0.081c0.016,0.018 0.039,0.027 0.069,0.027Z" style="fill:#fff;fill-rule:nonzero;"/></g><g transform="matrix(108,0,0,108,514.092,131.089244)"></g><g transform="matrix(108,0,0,108,536.988,131.089244)"><path d="M0.251,0.012c-0.07,0 -0.124,-0.022 -0.161,-0.066c-0.037,-0.044 -0.056,-0.113 -0.056,-0.207c0,-0.093 0.019,-0.162 0.056,-0.207c0.037,-0.044 0.091,-0.067 0.161,-0.067c0.051,0 0.092,0.012 0.122,0.035c0.031,0.023 0.052,0.055 0.065,0.096l-0.098,0.045c-0.005,-0.026 -0.014,-0.045 -0.028,-0.058c-0.014,-0.013 -0.034,-0.019 -0.061,-0.019c-0.03,0 -0.053,0.009 -0.068,0.027c-0.015,0.018 -0.022,0.045 -0.022,0.081l0,0.134c0,0.036 0.007,0.063 0.022,0.081c0.015,0.018 0.037,0.027 0.068,0.027c0.028,0 0.049,-0.007 0.064,-0.02c0.015,-0.014 0.026,-0.034 0.034,-0.062l0.093,0.045c-0.015,0.044 -0.038,0.077 -0.07,0.1c-0.031,0.023 -0.072,0.035 -0.121,0.035Z" style="fill:#fff;fill-rule:nonzero;"/></g><g transform="matrix(108,0,0,108,587.1,131.089244)"><path d="M0.479,-0l-0.073,-0c-0.016,-0 -0.03,-0.003 -0.043,-0.009c-0.013,-0.006 -0.023,-0.016 -0.031,-0.031c-0.008,-0.015 -0.011,-0.035 -0.011,-0.061l0,-0.016l0.025,0.028l-0.036,0c-0.006,0.031 -0.021,0.056 -0.045,0.074c-0.024,0.018 -0.052,0.027 -0.087,0.027c-0.048,0 -0.084,-0.013 -0.108,-0.041c-0.024,-0.027 -0.037,-0.064 -0.037,-0.112c0,-0.036 0.008,-0.066 0.023,-0.09c0.015,-0.024 0.038,-0.042 0.067,-0.054c0.029,-0.012 0.065,-0.017 0.108,-0.017l0.081,0l0,-0.045c0,-0.031 -0.007,-0.053 -0.02,-0.068c-0.013,-0.015 -0.034,-0.022 -0.064,-0.022c-0.025,0 -0.045,0.006 -0.062,0.018c-0.017,0.012 -0.031,0.028 -0.044,0.049l-0.072,-0.064c0.019,-0.031 0.044,-0.055 0.074,-0.073c0.03,-0.018 0.068,-0.027 0.114,-0.027c0.065,0 0.114,0.016 0.146,0.047c0.032,0.031 0.048,0.077 0.048,0.138l0,0.253l0.046,0l0,0.097Zm-0.167,-0.227l-0.072,0c-0.029,0 -0.05,0.006 -0.064,0.017c-0.014,0.011 -0.021,0.027 -0.021,0.048l0,0.022c0,0.022 0.006,0.038 0.018,0.048c0.012,0.01 0.029,0.015 0.05,0.015c0.017,0 0.032,-0.003 0.045,-0.01c0.013,-0.007 0.024,-0.016 0.032,-0.028c0.008,-0.012 0.012,-0.026 0.012,-0.043l0,-0.069Z" style="fill:#fff;fill-rule:nonzero;"/></g><g transform="matrix(108,0,0,108,641.748,131.089244)"><path d="M0.356,-0l0,-0.086l-0.014,0c-0.007,0.029 -0.022,0.053 -0.045,0.071c-0.023,0.018 -0.049,0.027 -0.078,0.027c-0.041,0 -0.074,-0.01 -0.101,-0.031c-0.027,-0.021 -0.046,-0.051 -0.059,-0.092c-0.013,-0.041 -0.019,-0.091 -0.019,-0.15c0,-0.059 0.007,-0.108 0.02,-0.149c0.013,-0.041 0.033,-0.072 0.06,-0.093c0.027,-0.021 0.06,-0.031 0.1,-0.031c0.03,0 0.056,0.009 0.078,0.027c0.023,0.018 0.037,0.042 0.045,0.071l0.014,0l0,-0.304l0.121,0l0,0.74l-0.121,-0Zm-0.091,-0.088c0.018,0 0.034,-0.003 0.048,-0.009c0.014,-0.006 0.024,-0.015 0.032,-0.027c0.008,-0.012 0.011,-0.026 0.011,-0.042l0,-0.189c0,-0.016 -0.004,-0.03 -0.011,-0.041c-0.008,-0.012 -0.018,-0.021 -0.032,-0.027c-0.014,-0.006 -0.03,-0.009 -0.048,-0.009c-0.031,-0 -0.055,0.01 -0.072,0.029c-0.018,0.019 -0.026,0.047 -0.026,0.082l0,0.124c0,0.035 0.009,0.062 0.026,0.081c0.018,0.02 0.042,0.029 0.072,0.029Z" style="fill:#fff;fill-rule:nonzero;"/></g><g transform="matrix(108,0,0,108,700.284,131.089244)"><path d="M0.479,-0l-0.073,-0c-0.016,-0 -0.03,-0.003 -0.043,-0.009c-0.013,-0.006 -0.023,-0.016 -0.031,-0.031c-0.008,-0.015 -0.011,-0.035 -0.011,-0.061l0,-0.016l0.025,0.028l-0.036,0c-0.006,0.031 -0.021,0.056 -0.045,0.074c-0.024,0.018 -0.052,0.027 -0.087,0.027c-0.048,0 -0.084,-0.013 -0.108,-0.041c-0.024,-0.027 -0.037,-0.064 -0.037,-0.112c0,-0.036 0.008,-0.066 0.023,-0.09c0.015,-0.024 0.038,-0.042 0.067,-0.054c0.029,-0.012 0.065,-0.017 0.108,-0.017l0.081,0l0,-0.045c0,-0.031 -0.007,-0.053 -0.02,-0.068c-0.013,-0.015 -0.034,-0.022 -0.064,-0.022c-0.025,0 -0.045,0.006 -0.062,0.018c-0.017,0.012 -0.031,0.028 -0.044,0.049l-0.072,-0.064c0.019,-0.031 0.044,-0.055 0.074,-0.073c0.03,-0.018 0.068,-0.027 0.114,-0.027c0.065,0 0.114,0.016 0.146,0.047c0.032,0.031 0.048,0.077 0.048,0.138l0,0.253l0.046,0l0,0.097Zm-0.167,-0.227l-0.072,0c-0.029,0 -0.05,0.006 -0.064,0.017c-0.014,0.011 -0.021,0.027 -0.021,0.048l0,0.022c0,0.022 0.006,0.038 0.018,0.048c0.012,0.01 0.029,0.015 0.05,0.015c0.017,0 0.032,-0.003 0.045,-0.01c0.013,-0.007 0.024,-0.016 0.032,-0.028c0.008,-0.012 0.012,-0.026 0.012,-0.043l0,-0.069Z" style="fill:#fff;fill-rule:nonzero;"/></g><g transform="matrix(108,0,0,108,754.932,131.089244)"><path d="M0.224,0.012c-0.043,0 -0.081,-0.008 -0.114,-0.024c-0.033,-0.016 -0.062,-0.039 -0.086,-0.07l0.074,-0.072c0.017,0.023 0.035,0.041 0.057,0.053c0.021,0.012 0.045,0.018 0.072,0.018c0.025,0 0.044,-0.005 0.057,-0.016c0.013,-0.011 0.019,-0.027 0.019,-0.048c0,-0.017 -0.004,-0.03 -0.012,-0.039c-0.008,-0.01 -0.023,-0.016 -0.043,-0.019l-0.049,-0.009c-0.036,-0.007 -0.066,-0.017 -0.089,-0.029c-0.023,-0.012 -0.04,-0.029 -0.051,-0.05c-0.011,-0.021 -0.016,-0.046 -0.016,-0.077c0,-0.055 0.016,-0.096 0.048,-0.123c0.032,-0.027 0.077,-0.041 0.136,-0.041c0.027,0 0.052,0.003 0.074,0.009c0.022,0.006 0.042,0.015 0.06,0.027c0.018,0.012 0.035,0.027 0.049,0.044l-0.071,0.071c-0.013,-0.017 -0.03,-0.03 -0.048,-0.04c-0.019,-0.01 -0.04,-0.015 -0.064,-0.015c-0.023,0 -0.041,0.005 -0.052,0.015c-0.012,0.01 -0.018,0.026 -0.018,0.047c0,0.017 0.005,0.03 0.014,0.039c0.009,0.009 0.024,0.015 0.044,0.019l0.05,0.009c0.055,0.01 0.094,0.027 0.117,0.05c0.024,0.024 0.035,0.057 0.035,0.1c0,0.036 -0.008,0.067 -0.023,0.092c-0.015,0.026 -0.037,0.045 -0.066,0.059c-0.029,0.013 -0.064,0.02 -0.105,0.02Z" style="fill:#fff;fill-rule:nonzero;"/></g><g transform="matrix(108,0,0,108,803.208,131.089244)"><path d="M0.298,-0l-0.087,-0c-0.042,-0 -0.072,-0.009 -0.091,-0.028c-0.019,-0.019 -0.029,-0.048 -0.029,-0.089l0,-0.309l-0.069,0l0,-0.097l0.036,0c0.018,0 0.03,-0.004 0.036,-0.012c0.006,-0.008 0.009,-0.021 0.009,-0.038l0,-0.092l0.109,0l0,0.142l0.094,0l0,0.097l-0.094,0l0,0.329l0.086,0l0,0.097Z" style="fill:#fff;fill-rule:nonzero;"/></g><g transform="matrix(108,0,0,108,839.388,131.089244)"><path d="M0.187,-0l-0.121,-0l0,-0.522l0.121,0l0,0.108l0.014,0c0.004,-0.02 0.01,-0.038 0.019,-0.055c0.009,-0.016 0.021,-0.029 0.036,-0.039c0.015,-0.009 0.035,-0.014 0.057,-0.014l0.026,0l0,0.123l-0.04,0c-0.025,0 -0.046,0.003 -0.062,0.008c-0.017,0.006 -0.029,0.014 -0.037,0.026c-0.008,0.012 -0.013,0.028 -0.013,0.048l0,0.316Z" style="fill:#fff;fill-rule:nonzero;"/></g><g transform="matrix(108,0,0,108,877.512,131.089244)"><path d="M0.253,0.012c-0.046,0 -0.086,-0.01 -0.118,-0.03c-0.033,-0.02 -0.058,-0.05 -0.075,-0.09c-0.017,-0.04 -0.026,-0.091 -0.026,-0.154c0,-0.063 0.009,-0.114 0.026,-0.155c0.017,-0.04 0.042,-0.07 0.075,-0.089c0.033,-0.019 0.072,-0.029 0.118,-0.029c0.046,0 0.086,0.01 0.118,0.029c0.033,0.019 0.058,0.049 0.075,0.089c0.017,0.04 0.026,0.092 0.026,0.155c0,0.062 -0.009,0.113 -0.026,0.154c-0.017,0.04 -0.042,0.07 -0.075,0.09c-0.033,0.02 -0.072,0.03 -0.118,0.03Zm0,-0.098c0.03,0 0.053,-0.009 0.069,-0.027c0.016,-0.018 0.024,-0.045 0.024,-0.081l0,-0.134c0,-0.036 -0.008,-0.063 -0.024,-0.081c-0.016,-0.018 -0.039,-0.027 -0.069,-0.027c-0.03,0 -0.053,0.009 -0.069,0.027c-0.016,0.018 -0.024,0.045 -0.024,0.081l0,0.134c0,0.036 0.008,0.063 0.024,0.081c0.016,0.018 0.039,0.027 0.069,0.027Z" style="fill:#fff;fill-rule:nonzero;"/></g><g transform="matrix(108,0,0,108,932.268,131.089244)"></g><g transform="matrix(108,0,0,108,64.38,260.689244)"><path d="M0.356,-0l0,-0.086l-0.014,0c-0.007,0.029 -0.022,0.053 -0.045,0.071c-0.023,0.018 -0.049,0.027 -0.078,0.027c-0.041,0 -0.074,-0.01 -0.101,-0.031c-0.027,-0.021 -0.046,-0.051 -0.059,-0.092c-0.013,-0.041 -0.019,-0.091 -0.019,-0.15c0,-0.059 0.007,-0.108 0.02,-0.149c0.013,-0.041 0.033,-0.072 0.06,-0.093c0.027,-0.021 0.06,-0.031 0.1,-0.031c0.03,0 0.056,0.009 0.078,0.027c0.023,0.018 0.037,0.042 0.045,0.071l0.014,0l0,-0.304l0.121,0l0,0.74l-0.121,-0Zm-0.091,-0.088c0.018,0 0.034,-0.003 0.048,-0.009c0.014,-0.006 0.024,-0.015 0.032,-0.027c0.008,-0.012 0.011,-0.026 0.011,-0.042l0,-0.189c0,-0.016 -0.004,-0.03 -0.011,-0.041c-0.008,-0.012 -0.018,-0.021 -0.032,-0.027c-0.014,-0.006 -0.03,-0.009 -0.048,-0.009c-0.031,-0 -0.055,0.01 -0.072,0.029c-0.018,0.019 -0.026,0.047 -0.026,0.082l0,0.124c0,0.035 0.009,0.062 0.026,0.081c0.018,0.02 0.042,0.029 0.072,0.029Z" style="fill:#fff;fill-rule:nonzero;"/></g><g transform="matrix(108,0,0,108,122.916,260.689244)"><path d="M0.479,-0l-0.073,-0c-0.016,-0 -0.03,-0.003 -0.043,-0.009c-0.013,-0.006 -0.023,-0.016 -0.031,-0.031c-0.008,-0.015 -0.011,-0.035 -0.011,-0.061l0,-0.016l0.025,0.028l-0.036,0c-0.006,0.031 -0.021,0.056 -0.045,0.074c-0.024,0.018 -0.052,0.027 -0.087,0.027c-0.048,0 -0.084,-0.013 -0.108,-0.041c-0.024,-0.027 -0.037,-0.064 -0.037,-0.112c0,-0.036 0.008,-0.066 0.023,-0.09c0.015,-0.024 0.038,-0.042 0.067,-0.054c0.029,-0.012 0.065,-0.017 0.108,-0.017l0.081,0l0,-0.045c0,-0.031 -0.007,-0.053 -0.02,-0.068c-0.013,-0.015 -0.034,-0.022 -0.064,-0.022c-0.025,0 -0.045,0.006 -0.062,0.018c-0.017,0.012 -0.031,0.028 -0.044,0.049l-0.072,-0.064c0.019,-0.031 0.044,-0.055 0.074,-0.073c0.03,-0.018 0.068,-0.027 0.114,-0.027c0.065,0 0.114,0.016 0.146,0.047c0.032,0.031 0.048,0.077 0.048,0.138l0,0.253l0.046,0l0,0.097Zm-0.167,-0.227l-0.072,0c-0.029,0 -0.05,0.006 -0.064,0.017c-0.014,0.011 -0.021,0.027 -0.021,0.048l0,0.022c0,0.022 0.006,0.038 0.018,0.048c0.012,0.01 0.029,0.015 0.05,0.015c0.017,0 0.032,-0.003 0.045,-0.01c0.013,-0.007 0.024,-0.016 0.032,-0.028c0.008,-0.012 0.012,-0.026 0.012,-0.043l0,-0.069Z" style="fill:#fff;fill-rule:nonzero;"/></g><g transform="matrix(108,0,0,108,177.564,260.689244)"></g><g transform="matrix(108,0,0,108,200.46,260.689244)"><path d="M0.068,-0.698l0.124,0l0,0.453c0,0.033 0.004,0.061 0.011,0.082c0.007,0.022 0.02,0.038 0.038,0.048c0.018,0.011 0.041,0.016 0.071,0.016c0.03,0 0.054,-0.005 0.071,-0.016c0.017,-0.011 0.03,-0.027 0.037,-0.048c0.007,-0.022 0.011,-0.049 0.011,-0.082l0,-0.453l0.124,0l0,0.435c0,0.064 -0.008,0.116 -0.023,0.157c-0.016,0.041 -0.041,0.07 -0.077,0.089c-0.036,0.019 -0.083,0.029 -0.144,0.029c-0.06,0 -0.108,-0.009 -0.144,-0.029c-0.036,-0.019 -0.061,-0.049 -0.077,-0.089c-0.016,-0.041 -0.023,-0.093 -0.023,-0.157l0,-0.435Z" style="fill:#fff;fill-rule:nonzero;"/></g><g transform="matrix(108,0,0,108,267.852,260.689244)"><path d="M0.197,-0l-0.124,-0l0,-0.698l0.407,0l0,0.109l-0.283,0l-0,0.182l0.245,0l0,0.108l-0.245,0l0,0.299Z" style="fill:#fff;fill-rule:nonzero;"/></g><g transform="matrix(108,0,0,108,324.12,260.689244)"><path d="M0.197,-0l-0.124,-0l0,-0.698l0.289,0c0.041,0 0.075,0.009 0.103,0.026c0.028,0.017 0.048,0.042 0.063,0.074c0.014,0.032 0.021,0.07 0.021,0.115c0,0.044 -0.007,0.082 -0.021,0.114c-0.014,0.032 -0.035,0.057 -0.063,0.074c-0.028,0.017 -0.062,0.026 -0.103,0.026l-0.164,0l0,0.27Zm0,-0.589l0,0.21l0.151,0c0.015,0 0.027,-0.003 0.038,-0.008c0.01,-0.005 0.018,-0.014 0.024,-0.025c0.005,-0.011 0.008,-0.025 0.008,-0.042l0,-0.062c0,-0.018 -0.003,-0.032 -0.008,-0.043c-0.005,-0.011 -0.013,-0.019 -0.024,-0.024c-0.01,-0.005 -0.023,-0.008 -0.038,-0.008l-0.151,0Z" style="fill:#fff;fill-rule:nonzero;"/></g><g transform="matrix(108,0,0,108,386.868,260.689244)"><path d="M0.072,-0l0,-0.698l0.296,0c0.055,0 0.096,0.016 0.123,0.048c0.028,0.032 0.041,0.076 0.041,0.132c0,0.039 -0.006,0.069 -0.017,0.09c-0.011,0.021 -0.026,0.036 -0.044,0.045c-0.018,0.009 -0.036,0.014 -0.054,0.015l0,0.015c0.015,0 0.03,0.003 0.047,0.008c0.016,0.005 0.032,0.014 0.045,0.026c0.014,0.012 0.025,0.028 0.034,0.048c0.009,0.02 0.013,0.044 0.013,0.073c0,0.038 -0.007,0.072 -0.02,0.102c-0.013,0.03 -0.032,0.054 -0.056,0.071c-0.024,0.017 -0.053,0.026 -0.086,0.026l-0.324,-0Zm0.124,-0.303l0,0.197l0.164,0c0.014,-0 0.026,-0.002 0.036,-0.007c0.01,-0.005 0.017,-0.013 0.023,-0.024c0.005,-0.011 0.008,-0.025 0.008,-0.043l0,-0.049c0,-0.017 -0.003,-0.031 -0.008,-0.042c-0.005,-0.011 -0.013,-0.019 -0.023,-0.024c-0.01,-0.005 -0.022,-0.008 -0.036,-0.008l-0.164,0Zm0,-0.289l0,0.185l0.144,0c0.014,0 0.025,-0.002 0.034,-0.007c0.009,-0.005 0.016,-0.012 0.022,-0.023c0.005,-0.01 0.008,-0.024 0.008,-0.04l0,-0.046c0,-0.017 -0.003,-0.03 -0.008,-0.041c-0.005,-0.01 -0.012,-0.018 -0.022,-0.023c-0.009,-0.005 -0.021,-0.007 -0.034,-0.007l-0.144,0Z" style="fill:#fff;fill-rule:nonzero;"/></g><g transform="matrix(108,0,0,108,451.452,260.689244)"></g><g transform="matrix(108,0,0,108,474.348,260.689244)"><path d="M0.187,-0l-0.121,-0l0,-0.522l0.121,0l0,0.088l0.014,0c0.009,-0.029 0.023,-0.053 0.043,-0.072c0.02,-0.019 0.047,-0.028 0.082,-0.028c0.047,0 0.083,0.016 0.108,0.048c0.025,0.032 0.038,0.077 0.038,0.135l0,0.351l-0.121,-0l0,-0.329c0,-0.034 -0.006,-0.06 -0.018,-0.077c-0.012,-0.018 -0.032,-0.026 -0.058,-0.026c-0.016,0 -0.03,0.003 -0.044,0.01c-0.013,0.007 -0.024,0.016 -0.032,0.028c-0.008,0.012 -0.012,0.027 -0.012,0.045l0,0.349Z" style="fill:#fff;fill-rule:nonzero;"/></g><g transform="matrix(108,0,0,108,531.804,260.689244)"><path d="M0.253,0.012c-0.046,0 -0.086,-0.01 -0.118,-0.03c-0.033,-0.02 -0.058,-0.05 -0.075,-0.09c-0.017,-0.04 -0.026,-0.091 -0.026,-0.154c0,-0.063 0.009,-0.114 0.026,-0.155c0.017,-0.04 0.042,-0.07 0.075,-0.089c0.033,-0.019 0.072,-0.029 0.118,-0.029c0.046,0 0.086,0.01 0.118,0.029c0.033,0.019 0.058,0.049 0.075,0.089c0.017,0.04 0.026,0.092 0.026,0.155c0,0.062 -0.009,0.113 -0.026,0.154c-0.017,0.04 -0.042,0.07 -0.075,0.09c-0.033,0.02 -0.072,0.03 -0.118,0.03Zm0,-0.098c0.03,0 0.053,-0.009 0.069,-0.027c0.016,-0.018 0.024,-0.045 0.024,-0.081l0,-0.134c0,-0.036 -0.008,-0.063 -0.024,-0.081c-0.016,-0.018 -0.039,-0.027 -0.069,-0.027c-0.03,0 -0.053,0.009 -0.069,0.027c-0.016,0.018 -0.024,0.045 -0.024,0.081l0,0.134c0,0.036 0.008,0.063 0.024,0.081c0.016,0.018 0.039,0.027 0.069,0.027Z" style="fill:#fff;fill-rule:nonzero;"/></g><g transform="matrix(108,0,0,108,586.56,260.689244)"></g><g transform="matrix(108,0,0,108,609.456,260.689244)"><path d="M0.263,0.012c-0.046,0 -0.086,-0.01 -0.12,-0.03c-0.034,-0.02 -0.061,-0.05 -0.08,-0.09c-0.019,-0.04 -0.029,-0.091 -0.029,-0.154c0,-0.063 0.009,-0.114 0.026,-0.155c0.017,-0.04 0.042,-0.07 0.075,-0.089c0.033,-0.019 0.072,-0.029 0.118,-0.029c0.046,0 0.086,0.01 0.118,0.029c0.032,0.019 0.057,0.049 0.074,0.089c0.017,0.04 0.025,0.092 0.025,0.155l0,0.03l-0.309,0l-0,0.033c0,0.035 0.01,0.062 0.03,0.082c0.02,0.02 0.046,0.03 0.08,0.03c0.029,0 0.053,-0.006 0.072,-0.019c0.02,-0.013 0.037,-0.031 0.051,-0.053l0.065,0.069c-0.019,0.031 -0.045,0.055 -0.078,0.074c-0.033,0.018 -0.072,0.028 -0.117,0.028Zm-0.01,-0.453c-0.02,0 -0.037,0.004 -0.051,0.012c-0.014,0.008 -0.024,0.02 -0.031,0.036c-0.007,0.016 -0.011,0.036 -0.011,0.06l0,0.027l0.182,0l0,-0.027c0,-0.024 -0.003,-0.044 -0.01,-0.06c-0.007,-0.016 -0.017,-0.028 -0.03,-0.036c-0.013,-0.008 -0.03,-0.012 -0.05,-0.012Z" style="fill:#fff;fill-rule:nonzero;"/></g><g transform="matrix(108,0,0,108,664.968,260.689244)"><rect x="0.049" y="-0.364" width="0.261" height="0.119" style="fill:#fff;fill-rule:nonzero;"/></g><g transform="matrix(108,0,0,108,703.848,260.689244)"><path d="M0.072,-0l0,-0.698l0.137,0l0.104,0.227l0.051,0.143l0.009,0l0.051,-0.143l0.103,-0.227l0.136,0l0,0.698l-0.117,-0l0,-0.398l0.008,-0.118l-0.014,0l-0.046,0.114l-0.126,0.269l-0.125,-0.269l-0.046,-0.113l-0.014,0l0.008,0.117l0,0.398l-0.117,-0Z" style="fill:#fff;fill-rule:nonzero;"/></g><g transform="matrix(108,0,0,108,783.336,260.689244)"><path d="M0.491,-0l-0.418,-0l0,-0.698l0.418,0l0,0.109l-0.294,0l0,0.182l0.257,0l0,0.108l-0.257,0l-0,0.19l0.294,0l0,0.109Z" style="fill:#fff;fill-rule:nonzero;"/></g><g transform="matrix(108,0,0,108,841.872,260.689244)"><path d="M0.318,0.012c-0.055,0 -0.103,-0.012 -0.144,-0.036c-0.041,-0.024 -0.072,-0.062 -0.095,-0.115c-0.022,-0.053 -0.034,-0.122 -0.034,-0.207c0,-0.087 0.011,-0.157 0.034,-0.21c0.022,-0.053 0.054,-0.092 0.095,-0.117c0.041,-0.025 0.089,-0.037 0.144,-0.037c0.062,0 0.11,0.013 0.146,0.039c0.036,0.026 0.065,0.066 0.087,0.12l-0.106,0.057c-0.009,-0.032 -0.022,-0.058 -0.04,-0.077c-0.018,-0.019 -0.047,-0.029 -0.086,-0.029c-0.043,0 -0.077,0.014 -0.102,0.042c-0.025,0.028 -0.037,0.069 -0.037,0.122l0,0.174c0,0.053 0.012,0.094 0.037,0.122c0.025,0.028 0.059,0.042 0.102,0.042c0.04,0 0.07,-0.01 0.089,-0.032c0.02,-0.021 0.034,-0.048 0.044,-0.081l0.102,0.06c-0.023,0.052 -0.052,0.092 -0.089,0.12c-0.036,0.028 -0.085,0.042 -0.147,0.042Z" style="fill:#fff;fill-rule:nonzero;"/></g><g transform="matrix(108,0,0,108,904.62,260.689244)"></g></g></svg>