<?xml version="1.0" encoding="UTF-8" standalone="no"?><!DOCTYPE svg PUBLIC "-//W3C//DTD SVG 1.1//EN" "http://www.w3.org/Graphics/SVG/1.1/DTD/svg11.dtd"><svg width="100%" height="100%" viewBox="0 0 964 1010" version="1.1" xmlns="http://www.w3.org/2000/svg" xmlns:xlink="http://www.w3.org/1999/xlink" xml:space="preserve" xmlns:serif="http://www.serif.com/" style="fill-rule:evenodd;clip-rule:evenodd;stroke-linejoin:round;stroke-miterlimit:2;"><g><path d="M271.929,86.401c-152.558,65.667 -255.262,222.3 -255.262,397.821c0,192.379 154.975,367.575 352.812,398.8c15.971,2.517 27.6,10.158 34.579,22.704c12.975,23.325 5.575,58.133 -0.629,78.371c33.917,-11.125 118.262,-42.379 203.442,-101.154c-6.175,-33.742 -26.221,-33.742 -33.008,-33.742c-0.646,0 -1.313,0.017 -1.979,0.058c-5.783,0.229 -11.663,0.35 -17.479,0.35c-203.279,0.017 -385.429,-144.292 -423.675,-335.662c-17.829,-89.25 -9.379,-180.246 24.483,-263.196c26.192,-64.15 66.087,-120.167 116.717,-164.35m103.829,923.075l6.613,-15.75c6.179,-14.679 19.492,-57.7 7.125,-79.908c-4.425,-7.95 -11.825,-12.638 -22.604,-14.321c-99.979,-15.796 -192.579,-66.804 -260.725,-143.604c-68.467,-77.175 -106.167,-173.671 -106.167,-271.671c0,-201.133 130.117,-378.492 316.417,-431.267l50.304,-14.238l-43.375,29.163c-141.787,95.392 -210.979,269.171 -176.275,442.796c36.712,183.729 211.846,322.283 407.333,322.283c5.583,0 11.238,-0.121 16.808,-0.35c0.896,-0.025 1.779,-0.071 2.65,-0.071c27.962,0 45.812,18.896 50.296,53.196l0.654,4.979l-4.133,2.917c-113.55,79.583 -227.304,111.063 -228.438,111.371l-16.483,4.475Z" style="fill:#fff;fill-rule:nonzero;"/><path d="M807.234,782.625c124.8,-130.558 175.096,-276.604 149.496,-434.058c-32.296,-198.721 -208.583,-348.567 -410.042,-348.567c-26.5,0 -53.1,2.621 -79.087,7.812c-34.825,6.975 -68.15,18.363 -99.546,34.017c20.313,-3.042 40.858,-4.558 61.467,-4.558c114.846,0 227.304,48.317 308.567,132.538c82.254,85.304 125.208,197.054 120.967,314.704c-5.808,160.979 -86.821,301.367 -234.333,406.258c1.142,12.558 0.512,24.9 -0.421,34.325c31.521,-17.846 109.987,-66.158 182.933,-142.471" style="fill:#fff;fill-rule:nonzero;"/><path d="M850.727,484.22c-7.054,195.254 -121.696,323.279 -234.829,402.579c-3.158,-24.142 -14.038,-47.108 -44.35,-45.875c-204.642,8.333 -393.658,-133.517 -432.642,-328.604c-36.2,-181.104 40.308,-357.521 179.796,-451.354c35.313,-10 72.467,-15.346 110.817,-15.346c232.621,0 429.954,196.5 421.208,438.6Zm-670.052,-85.344l0,151.546c7.321,1.275 13.608,1.904 18.825,1.904c4.946,0 11.154,-0.629 18.638,-1.904l0,-59.467l40.842,0c1.263,-6.354 1.896,-11.938 1.896,-16.721c0,-4.658 -0.633,-10.158 -1.896,-16.513l-40.842,0l0,-25.825l51.842,0c1.129,-6.483 1.696,-12.067 1.696,-16.721c0,-2.383 -0.142,-4.925 -0.429,-7.604c-0.279,-2.696 -0.7,-5.583 -1.267,-8.696l-89.304,0Zm84.856,116.447c0,7.042 1.233,13.004 3.696,17.871c2.463,4.85 5.888,8.767 10.254,11.713c4.371,2.962 9.617,5.108 15.754,6.454c6.117,1.333 12.85,2.008 20.179,2.008c8.458,0 16.492,-0.775 24.096,-2.333c7.608,-1.542 14.092,-3.1 19.45,-4.658l0,-61.929c0,-7.871 -1.137,-14.675 -3.396,-20.388c-2.254,-5.708 -5.442,-10.392 -9.608,-14.054c-4.158,-3.662 -9.187,-6.371 -15.117,-8.137c-5.921,-1.754 -12.533,-2.654 -19.863,-2.654c-5.362,0 -11.383,0.579 -18.075,1.717c-6.688,1.121 -13.421,2.8 -20.188,5.062c0,2.817 0.113,5.317 0.321,7.504c0.204,2.175 0.563,4.292 1.054,6.342c0.492,2.05 1.2,4.054 2.117,6.021c0.921,1.979 2.013,4.15 3.275,6.55c4.783,-1.683 9.433,-2.921 13.954,-3.7c4.5,-0.762 8.442,-1.158 11.829,-1.158c2.542,0 5.004,0.171 7.408,0.521c2.392,0.35 4.567,0.987 6.546,1.921c1.971,0.9 3.596,2.204 4.858,3.892c1.271,1.708 1.979,3.8 2.117,6.35l-12.883,0c-5.358,0 -10.862,0.521 -16.496,1.575c-5.638,1.067 -10.783,2.929 -15.438,5.608c-4.646,2.667 -8.446,6.288 -11.404,10.775c-2.963,4.517 -4.442,10.229 -4.442,17.129Zm49.883,11.825c-1.838,0 -3.842,-0.125 -6.017,-0.425c-2.196,-0.262 -4.238,-0.838 -6.133,-1.683c-1.913,-0.838 -3.492,-2.087 -4.763,-3.704c-1.267,-1.608 -1.904,-3.838 -1.904,-6.646c0,-3.8 1.696,-6.775 5.079,-8.879c3.379,-2.117 7.529,-3.183 12.467,-3.183l12.05,0l0,23.258c-1.133,0.279 -2.887,0.575 -5.279,0.838c-2.404,0.3 -4.221,0.425 -5.5,0.425Zm215.859,42.757c-2.771,0 -5.604,0.137 -8.508,0.425c-2.904,0.275 -5.95,0.613 -9.133,1.033c-0.546,3.196 -0.967,6.229 -1.242,9.133c-0.279,2.888 -0.404,5.737 -0.404,8.517c0,2.758 0.125,5.596 0.404,8.496c0.275,2.904 0.696,5.95 1.242,9.121c3.183,0.562 6.229,0.971 9.133,1.246c2.904,0.287 5.737,0.408 8.508,0.408c2.763,0 5.596,-0.121 8.508,-0.408c2.904,-0.275 5.938,-0.683 9.125,-1.246c0.546,-3.171 0.967,-6.217 1.242,-9.121c0.279,-2.9 0.421,-5.738 0.421,-8.496c0,-2.779 -0.142,-5.629 -0.421,-8.517c-0.275,-2.904 -0.696,-5.937 -1.242,-9.133c-3.188,-0.421 -6.221,-0.758 -9.125,-1.033c-2.912,-0.287 -5.746,-0.425 -8.508,-0.425Zm146.221,-7.031c0,-5.483 -0.696,-10.362 -2.104,-14.583c-1.417,-4.225 -3.283,-7.862 -5.604,-10.888c-2.329,-3.029 -5,-5.554 -8.037,-7.6c-3.029,-2.054 -6.158,-3.696 -9.4,-4.971c4.504,-2.958 8.242,-7.158 11.192,-12.583c2.971,-5.413 4.442,-11.442 4.442,-18.067c0,-8.025 -1.512,-14.675 -4.542,-19.963c-3.033,-5.292 -7.158,-9.521 -12.354,-12.696c-5.217,-3.171 -11.313,-5.412 -18.292,-6.763c-6.967,-1.321 -14.483,-2.004 -22.508,-2.004c-8.446,0 -15.85,0.296 -22.192,0.854c-6.342,0.562 -12.192,1.262 -17.542,2.104l0,151.142c7.042,0.825 13.6,1.542 19.658,2.104c6.046,0.558 12.892,0.842 20.496,0.842c9.579,0 18.458,-0.704 26.629,-2.121c8.167,-1.4 15.217,-3.858 21.142,-7.379c5.917,-3.55 10.563,-8.321 13.946,-14.379c3.388,-6.058 5.071,-13.75 5.071,-23.05Zm-70.379,-19.442l8.679,0c7.033,0 12.775,1.304 17.208,3.904c4.442,2.621 6.658,7.296 6.658,14.058c0,3.546 -0.675,6.458 -2.004,8.763c-1.333,2.346 -3.129,4.183 -5.387,5.5c-2.258,1.346 -4.758,2.3 -7.508,2.858c-2.742,0.562 -5.463,0.858 -8.142,0.858c-2.392,0 -4.329,-0.046 -5.8,-0.108c-1.479,-0.075 -2.717,-0.188 -3.704,-0.313l0,-35.521Zm0,-30.021l0,-31.267c0.842,-0.138 1.867,-0.225 3.067,-0.225l3.062,0c2.113,0 4.292,0.225 6.55,0.65c2.254,0.417 4.296,1.187 6.133,2.308c1.829,1.142 3.346,2.683 4.542,4.658c1.204,1.979 1.8,4.45 1.8,7.396c0,6.058 -1.687,10.333 -5.075,12.792c-3.387,2.467 -8.104,3.687 -14.158,3.687l-5.921,0Zm-149.569,1.673c0,7.008 1.229,12.946 3.675,17.8c2.458,4.829 5.867,8.725 10.208,11.671c4.354,2.946 9.579,5.096 15.687,6.412c6.096,1.333 12.796,2.008 20.096,2.008c8.421,0 16.412,-0.787 23.987,-2.317c7.583,-1.558 14.037,-3.083 19.367,-4.642l0,-61.654c0,-7.858 -1.129,-14.633 -3.367,-20.3c-2.25,-5.683 -5.442,-10.354 -9.579,-14c-4.137,-3.65 -9.162,-6.354 -15.046,-8.096c-5.9,-1.767 -12.492,-2.654 -19.779,-2.654c-5.346,0 -11.329,0.579 -17.992,1.717c-6.671,1.108 -13.375,2.792 -20.112,5.021c0,2.817 0.117,5.317 0.325,7.475c0.204,2.179 0.554,4.279 1.058,6.312c0.479,2.05 1.179,4.058 2.096,6.004c0.917,1.962 2,4.154 3.258,6.525c4.775,-1.679 9.404,-2.9 13.896,-3.692c4.487,-0.754 8.413,-1.146 11.787,-1.146c2.521,0 4.975,0.179 7.358,0.529c2.4,0.342 4.558,0.983 6.529,1.879c1.963,0.929 3.571,2.221 4.842,3.9c1.262,1.687 1.962,3.792 2.096,6.312l-12.829,0c-5.337,0 -10.808,0.521 -16.417,1.571c-5.612,1.067 -10.729,2.921 -15.371,5.588c-4.617,2.667 -8.408,6.254 -11.362,10.729c-2.946,4.504 -4.413,10.183 -4.413,17.046Zm49.667,11.783c-1.821,0 -3.829,-0.142 -6.004,-0.408c-2.167,-0.296 -4.2,-0.858 -6.1,-1.696c-1.896,-0.842 -3.467,-2.05 -4.729,-3.679c-1.271,-1.608 -1.892,-3.825 -1.892,-6.621c0,-3.8 1.675,-6.746 5.042,-8.85c3.367,-2.113 7.504,-3.137 12.412,-3.137l11.996,0l0,23.125c-1.121,0.287 -2.879,0.562 -5.258,0.858c-2.388,0.267 -4.204,0.408 -5.467,0.408Zm-95.235,-5.782l0.217,-79.342c-2.954,-0.687 -5.983,-1.192 -9.075,-1.475c-3.088,-0.279 -5.979,-0.417 -8.658,-0.417c-2.808,0 -5.721,0.137 -8.737,0.417c-3.046,0.283 -6.104,0.788 -9.196,1.475l-0.204,109.096l75.542,0c0.708,-2.817 1.167,-5.454 1.367,-7.925c0.213,-2.442 0.317,-4.796 0.317,-7.058c0,-2.242 -0.104,-4.571 -0.317,-6.954c-0.2,-2.4 -0.658,-4.992 -1.367,-7.817l-39.887,0Zm278.261,-22.876l0,109.25c3.683,0.729 6.946,1.175 9.779,1.387c2.838,0.225 5.454,0.308 7.867,0.308c2.258,0 4.883,-0.083 7.867,-0.308c2.971,-0.212 6.296,-0.658 9.987,-1.387l0,-83.538c1.408,-0.267 3.471,-0.408 6.163,-0.408c4.821,0 8.325,1.167 10.512,3.508c2.204,2.329 3.296,5.342 3.296,9.033c0,3.675 -0.917,7.112 -2.754,10.313c-1.846,3.183 -5.246,6.2 -10.213,9.033l-2.975,1.696l23.596,50.154c2.412,0.571 5.458,1.008 9.142,1.275c3.683,0.296 7.517,0.433 11.475,0.433c3.267,0 6.621,-0.138 10.1,-0.433c3.471,-0.267 6.621,-0.704 9.467,-1.275l-24.233,-46.321c0.992,-0.858 2.262,-1.996 3.817,-3.412c1.567,-1.413 3.058,-3.283 4.467,-5.638c1.417,-2.329 2.625,-5.15 3.612,-8.392c0.996,-3.254 1.487,-7.083 1.487,-11.475c0,-11.629 -4.283,-20.646 -12.85,-27.117c-8.579,-6.425 -21.433,-9.65 -38.583,-9.65c-6.371,0 -13.146,0.279 -20.3,0.842c-7.154,0.575 -14.062,1.292 -20.725,2.121Z" style="fill:#fff;"/></g></svg>